<svg xmlns="http://www.w3.org/2000/svg" viewBox="0 0 133.53 91.25"><defs><style>.cls-1{fill:none;stroke:#fff;stroke-miterlimit:10;stroke-width:0.75px;}.cls-2{fill:#fff;}</style></defs><title>Logo_LeftAlligned</title><g id="Layer_2" data-name="Layer 2"><g id="PROJECT_PAGE" data-name="PROJECT PAGE"><rect class="cls-1" x="0.38" y="0.38" width="132.78" height="90.5" rx="13.12" ry="13.12"/><path class="cls-2" d="M7.43,45.72v0a2.67,2.67,0,0,1,.07-.6,1.51,1.51,0,0,1,.22-.48,1.86,1.86,0,0,1,.35-.4,4.33,4.33,0,0,1,.5-.37l.31-.18a1.36,1.36,0,0,0,.4-.39,1,1,0,0,0,.13-.51.76.76,0,0,0-.2-.53A.67.67,0,0,0,8.69,42a.64.64,0,0,0-.52.25A1.16,1.16,0,0,0,8,43v0H7.51V43a1.78,1.78,0,0,1,.09-.59,1.21,1.21,0,0,1,.24-.45,1,1,0,0,1,.38-.28,1.13,1.13,0,0,1,.49-.1,1.3,1.3,0,0,1,.49.09,1.05,1.05,0,0,1,.37.25,1.11,1.11,0,0,1,.24.39,1.4,1.4,0,0,1,.09.51,1.55,1.55,0,0,1-.19.75,1.68,1.68,0,0,1-.59.56l-.31.18-.31.2a3,3,0,0,0-.26.21,1.88,1.88,0,0,0-.18.24A1,1,0,0,0,8,45.2h2v.52Z"/><path class="cls-2" d="M13.19,45.3a1,1,0,0,1-.92.53,1,1,0,0,1-.93-.53A3.27,3.27,0,0,1,11,43.69a3.31,3.31,0,0,1,.32-1.62,1.06,1.06,0,0,1,1.85,0,4.24,4.24,0,0,1,0,3.23Zm-.35-2.86a.57.57,0,0,0-.57-.41.59.59,0,0,0-.58.41,3.27,3.27,0,0,0-.17,1.25,3.3,3.3,0,0,0,.17,1.25.6.6,0,0,0,.58.4.57.57,0,0,0,.57-.4A3.3,3.3,0,0,0,13,43.69,3.27,3.27,0,0,0,12.84,42.44Z"/><path class="cls-2" d="M15.78,45.72V42.77h-.84v-.43a1.15,1.15,0,0,0,.68-.19.86.86,0,0,0,.28-.61h.35v4.18Z"/><path class="cls-2" d="M20.13,45.05a1.16,1.16,0,0,1-.24.42,1.05,1.05,0,0,1-.39.27,1.42,1.42,0,0,1-.52.09,1.47,1.47,0,0,1-.53-.09.94.94,0,0,1-.38-.27,1,1,0,0,1-.24-.42,1.47,1.47,0,0,1-.09-.53,1,1,0,0,1,.6-1,.91.91,0,0,1-.48-.88,1.16,1.16,0,0,1,.08-.42,1,1,0,0,1,.22-.34,1.18,1.18,0,0,1,.35-.23,1.4,1.4,0,0,1,.47-.08,1.34,1.34,0,0,1,.46.08,1.07,1.07,0,0,1,.35.23,1,1,0,0,1,.22.34,1.16,1.16,0,0,1,.08.42.92.92,0,0,1-.47.88,1,1,0,0,1,.6,1A1.47,1.47,0,0,1,20.13,45.05ZM19.52,44a.83.83,0,0,0-1.08,0,.78.78,0,0,0-.2.56.89.89,0,0,0,.2.6.77.77,0,0,0,1.08,0,.89.89,0,0,0,.2-.6A.78.78,0,0,0,19.52,44Zm-.08-1.77A.64.64,0,0,0,19,42a.62.62,0,0,0-.46.17.64.64,0,0,0-.16.47.68.68,0,0,0,.16.48.59.59,0,0,0,.46.18.6.6,0,0,0,.46-.18.68.68,0,0,0,.16-.48A.64.64,0,0,0,19.44,42.18Z"/><path class="cls-2" d="M22.13,46.25h-.35L23,41.44h.36Z"/><path class="cls-2" d="M27.11,45.3a1,1,0,0,1-.93.53,1,1,0,0,1-.93-.53,3.28,3.28,0,0,1-.31-1.61,3.32,3.32,0,0,1,.31-1.62,1.07,1.07,0,0,1,1.86,0,4.36,4.36,0,0,1,0,3.23Zm-.35-2.86a.62.62,0,0,0-1.16,0,3.48,3.48,0,0,0-.17,1.25,3.52,3.52,0,0,0,.17,1.25.62.62,0,0,0,1.16,0,3.52,3.52,0,0,0,.17-1.25A3.48,3.48,0,0,0,26.76,42.44Z"/><path class="cls-2" d="M30,43.8a6.94,6.94,0,0,0-.47,1.91H29a7,7,0,0,1,.48-1.87,6.83,6.83,0,0,1,1-1.64h-2v-.55H31v.5A6.6,6.6,0,0,0,30,43.8Z"/><path class="cls-2" d="M32.75,44.31v-.48H34v.48Z"/><path class="cls-2" d="M37.9,45.3a1,1,0,0,1-.92.53,1,1,0,0,1-.93-.53,3.27,3.27,0,0,1-.32-1.61,3.31,3.31,0,0,1,.32-1.62,1,1,0,0,1,.93-.54,1,1,0,0,1,.92.54,4.24,4.24,0,0,1,0,3.23Zm-.34-2.86a.62.62,0,0,0-1.16,0,3.48,3.48,0,0,0-.17,1.25,3.52,3.52,0,0,0,.17,1.25.62.62,0,0,0,1.16,0,3.56,3.56,0,0,0,.16-1.25A3.52,3.52,0,0,0,37.56,42.44Z"/><path class="cls-2" d="M41.75,45a1.26,1.26,0,0,1-.25.44,1,1,0,0,1-.38.29,1.18,1.18,0,0,1-.5.1,1.11,1.11,0,0,1-1-.49,2.69,2.69,0,0,1-.33-1.47,3.42,3.42,0,0,1,.36-1.74,1.11,1.11,0,0,1,1-.6,1.06,1.06,0,0,1,.8.3,1.24,1.24,0,0,1,.33.85h-.48a.76.76,0,0,0-.19-.49.58.58,0,0,0-.46-.17c-.52,0-.8.5-.85,1.5a1,1,0,0,1,.86-.45,1.18,1.18,0,0,1,.46.09,1.22,1.22,0,0,1,.36.27,1.43,1.43,0,0,1,.24.44,1.71,1.71,0,0,1,.08.57A1.65,1.65,0,0,1,41.75,45Zm-.61-1.21a.62.62,0,0,0-.51-.23.68.68,0,0,0-.55.24.94.94,0,0,0-.2.65,1,1,0,0,0,.2.67.65.65,0,0,0,.53.24.64.64,0,0,0,.53-.25,1.05,1.05,0,0,0,.19-.66A1,1,0,0,0,41.14,43.79Z"/><path class="cls-2" d="M9.61,51.92a1,1,0,0,1-.84.33H7.42V48.09H8.7a1.11,1.11,0,0,1,.79.26,1.1,1.1,0,0,1,.26.78,1,1,0,0,1-.12.52,1,1,0,0,1-.37.35.82.82,0,0,1,.48.35,1.18,1.18,0,0,1,.17.65A1.32,1.32,0,0,1,9.61,51.92Zm-.49-3.19a.71.71,0,0,0-.48-.14H7.9v1.25h.7a.6.6,0,0,0,.68-.65A.61.61,0,0,0,9.12,48.73Zm.11,1.75a.83.83,0,0,0-.56-.16H7.9v1.42h.82c.46,0,.69-.24.69-.73A.69.69,0,0,0,9.23,50.48Z"/><path class="cls-2" d="M13.5,51.1a2.76,2.76,0,0,1-.27.69,1.4,1.4,0,0,1-.42.42,1,1,0,0,1-.55.15,1.06,1.06,0,0,1-.55-.15,1.27,1.27,0,0,1-.41-.42A2.16,2.16,0,0,1,11,51.1a4.27,4.27,0,0,1-.1-.93,3.82,3.82,0,0,1,.1-.94,2.42,2.42,0,0,1,.26-.69,1.4,1.4,0,0,1,.42-.42,1,1,0,0,1,.55-.14,1.12,1.12,0,0,1,.55.14,1.33,1.33,0,0,1,.42.43,2.76,2.76,0,0,1,.27.69,4.85,4.85,0,0,1,0,1.86Zm-.64-2.19a.67.67,0,0,0-.6-.43.68.68,0,0,0-.6.43,2.8,2.8,0,0,0-.23,1.26,2.73,2.73,0,0,0,.23,1.25.68.68,0,0,0,.6.43.67.67,0,0,0,.6-.43,2.63,2.63,0,0,0,.23-1.25A2.67,2.67,0,0,0,12.86,48.91Z"/><path class="cls-2" d="M17,52.25,16.57,51H15.14l-.37,1.23h-.48l1.31-4.16h.52l1.32,4.16Zm-1.09-3.57-.55,1.89h1.11Z"/><path class="cls-2" d="M20.23,52.25l-1.2-2-.43.53v1.48h-.47V48.09h.47v2l1.59-2h.58l-1.41,1.75,1.45,2.41Z"/><path class="cls-2" d="M23.34,50.56v1.69h-.48V50.6l-1.23-2.51h.57l.9,2,.88-2h.54Z"/><path class="cls-2" d="M25.54,52.25V48.09h2.23v.51H26v1.24h1.61v.47H26v1.43h1.8v.51Z"/><path class="cls-2" d="M29.65,50.83v-.47H30.9v.47Z"/><path class="cls-2" d="M35,52.25,34.58,51H33.15l-.37,1.23H32.3l1.31-4.16h.52l1.32,4.16Zm-1.09-3.57-.56,1.89h1.11Z"/><path class="cls-2" d="M38.54,52.25l-.09-.56a1.11,1.11,0,0,1-1,.67,1,1,0,0,1-.52-.15,1.33,1.33,0,0,1-.42-.43,2.17,2.17,0,0,1-.28-.69,4.08,4.08,0,0,1,0-1.84,2.17,2.17,0,0,1,.29-.69,1.29,1.29,0,0,1,.44-.43,1.17,1.17,0,0,1,.58-.15,1,1,0,0,1,.82.36,1.69,1.69,0,0,1,.38,1h-.51a1.43,1.43,0,0,0-.24-.66.57.57,0,0,0-.47-.22.73.73,0,0,0-.66.43,3.5,3.5,0,0,0,0,2.52.71.71,0,0,0,.62.43.62.62,0,0,0,.32-.09.89.89,0,0,0,.25-.26,1.31,1.31,0,0,0,.16-.42,2.38,2.38,0,0,0,.06-.55v0h-.8V50h1.3v2.25Z"/><path class="cls-2" d="M41.33,50.56v1.69h-.47V50.6l-1.23-2.51h.57l.89,2,.89-2h.53Z"/><path class="cls-2" d="M43.54,52.25V48.09h2.23v.51H44v1.24h1.6v.47H44v1.43h1.8v.51Z"/><path class="cls-2" d="M49.16,52.25V48.48l-.67,3.77h-.44l-.67-3.77v3.77H47V48.09h.63l.66,3.67.66-3.67h.63v4.16Z"/><path class="cls-2" d="M53,52.25,52.58,51H51.15l-.38,1.23h-.48l1.32-4.16h.52l1.31,4.16Zm-1.08-3.57-.56,1.89h1.11Z"/><path class="cls-2" d="M56,52.25,54.72,48.9v3.35h-.43V48.09h.62l1.3,3.4v-3.4h.44v4.16Z"/><path class="cls-2" d="M59.27,52.94a.8.8,0,0,1-.62.31v-.41a.49.49,0,0,0,.36-.19.93.93,0,0,0,.11-.5V52h-.35v-.9h.71v1A1.43,1.43,0,0,1,59.27,52.94Z"/><path class="cls-2" d="M67.35,51.4a2,2,0,0,1-.28.52,1.11,1.11,0,0,1-.39.33,1.09,1.09,0,0,1-.48.11,1,1,0,0,1-.55-.15,1.4,1.4,0,0,1-.42-.42A2.42,2.42,0,0,1,65,51.1a4.27,4.27,0,0,1-.1-.93,4.37,4.37,0,0,1,.1-.94,2.42,2.42,0,0,1,.26-.69,1.4,1.4,0,0,1,.42-.42A1,1,0,0,1,66.2,48a1.13,1.13,0,0,1,.45.09,1,1,0,0,1,.36.27,1.43,1.43,0,0,1,.27.43,2.38,2.38,0,0,1,.15.57h-.49a1.36,1.36,0,0,0-.28-.64.58.58,0,0,0-.46-.22.67.67,0,0,0-.6.43,2.8,2.8,0,0,0-.23,1.26,2.73,2.73,0,0,0,.23,1.25.69.69,0,0,0,.6.43.62.62,0,0,0,.52-.29A1.78,1.78,0,0,0,67,50.7h.5A2.71,2.71,0,0,1,67.35,51.4Z"/><path class="cls-2" d="M70.4,52.25v-2a1.53,1.53,0,0,0-.1-.63.4.4,0,0,0-.4-.21.64.64,0,0,0-.55.25,1.24,1.24,0,0,0-.19.75v1.85H68.7V48h.46V49.5a1,1,0,0,1,.32-.42.75.75,0,0,1,.48-.16.9.9,0,0,1,.48.12.72.72,0,0,1,.3.32.83.83,0,0,1,.1.35c0,.13,0,.27,0,.43v2.11Z"/><path class="cls-2" d="M74.18,50A.79.79,0,0,0,74,49.5a.46.46,0,0,0-.4-.17.6.6,0,0,0-.53.26,1.4,1.4,0,0,0-.19.78v1.84h-.45V49h.45v.54a1.42,1.42,0,0,1,.34-.49.71.71,0,0,1,.48-.16q.89,0,.9,1.11Z"/><path class="cls-2" d="M75,52.25v-.42H76V49.15h.45v2.68h.94v.42Zm.91-3.7V48h.49v.59Z"/><path class="cls-2" d="M80.62,52a1.14,1.14,0,0,1-.84.29A1.08,1.08,0,0,1,79,52a1.22,1.22,0,0,1-.28-.83h.44a.62.62,0,0,0,.68.65.69.69,0,0,0,.48-.15.54.54,0,0,0,.14-.57.36.36,0,0,0-.08-.12.47.47,0,0,0-.14-.08L80,50.87l-.5-.15a1.34,1.34,0,0,1-.34-.13.74.74,0,0,1-.25-.17.82.82,0,0,1-.14-.26,1.18,1.18,0,0,1,0-.35,1.06,1.06,0,0,1,.07-.37.69.69,0,0,1,.2-.3.92.92,0,0,1,.32-.2,1.4,1.4,0,0,1,.44-.07,1.38,1.38,0,0,1,.43.07,1.05,1.05,0,0,1,.34.2.81.81,0,0,1,.21.3,1,1,0,0,1,.07.39h-.44a.51.51,0,0,0-.18-.38.63.63,0,0,0-.43-.13.69.69,0,0,0-.43.11.42.42,0,0,0-.14.35.32.32,0,0,0,.11.28,1.08,1.08,0,0,0,.32.14l.44.12.36.12a.78.78,0,0,1,.26.17.76.76,0,0,1,.16.26,1.35,1.35,0,0,1,0,.38A1,1,0,0,1,80.62,52Z"/><path class="cls-2" d="M84,52.35a1.59,1.59,0,0,1-.49-.07.64.64,0,0,1-.29-.21.82.82,0,0,1-.14-.37,3.67,3.67,0,0,1,0-.52V49.55h-.78v-.42H83v-.78l.46-.16v.94h1v.42h-1V51.1c0,.13,0,.25,0,.35a.61.61,0,0,0,.08.25.38.38,0,0,0,.2.15,1.08,1.08,0,0,0,.35,0,2.13,2.13,0,0,0,.39,0v.46Z"/><path class="cls-2" d="M85.83,52.25v-.42h.93c0-.45,0-.91,0-1.37V49.15h.45v2.68h.94v.42Zm.92-3.7V48h.49v.59Z"/><path class="cls-2" d="M91.55,52.26c-.28,0-.42-.15-.42-.46v0a1.12,1.12,0,0,1-.91.52.75.75,0,0,1-.61-.25,1,1,0,0,1-.22-.69,1.37,1.37,0,0,1,.06-.44.73.73,0,0,1,.18-.31,1,1,0,0,1,.32-.19,3.71,3.71,0,0,1,.45-.11l.38,0a.59.59,0,0,0,.21-.06.21.21,0,0,0,.09-.13,1.63,1.63,0,0,0,0-.25c0-.33-.19-.49-.57-.49s-.61.2-.61.58H89.5v0a1,1,0,0,1,.28-.74,1,1,0,0,1,.75-.28,1,1,0,0,1,.76.24,1,1,0,0,1,.24.74v1.66a.67.67,0,0,0,0,.23.13.13,0,0,0,.14.09l.11,0v.41A.6.6,0,0,1,91.55,52.26Zm-.47-1.69a1.09,1.09,0,0,1-.38.14l-.42.07A.58.58,0,0,0,90,51a.53.53,0,0,0-.1.36c0,.35.15.53.45.53a.73.73,0,0,0,.3-.06.7.7,0,0,0,.25-.15.81.81,0,0,0,.17-.24.78.78,0,0,0,.06-.31Z"/><path class="cls-2" d="M94.82,52.21v-2a1.5,1.5,0,0,0-.1-.63.39.39,0,0,0-.4-.22.65.65,0,0,0-.55.26,1.21,1.21,0,0,0-.19.74v1.86h-.46V49h.43v.49a.89.89,0,0,1,.83-.6,1,1,0,0,1,.48.11.84.84,0,0,1,.3.32.88.88,0,0,1,.1.36c0,.12,0,.27,0,.42v2.12Z"/><path class="cls-2" d="M9.46,56.77A.76.76,0,0,1,9,57a4.39,4.39,0,0,1-.54,0H8v1.76H7.5V54.62H8.74a1.07,1.07,0,0,1,.82.3,1.3,1.3,0,0,1,.27.89A1.18,1.18,0,0,1,9.46,56.77Zm-.17-1.29a.46.46,0,0,0-.14-.21.51.51,0,0,0-.22-.11,1.51,1.51,0,0,0-.32,0H8v1.41h.6a1.66,1.66,0,0,0,.33,0,.46.46,0,0,0,.23-.12.44.44,0,0,0,.14-.22,1.13,1.13,0,0,0,.05-.35A1.06,1.06,0,0,0,9.29,55.48Z"/><path class="cls-2" d="M13.15,58.39a1,1,0,0,1-.88.45,1.15,1.15,0,0,1-.5-.11,1,1,0,0,1-.38-.34,1.8,1.8,0,0,1-.24-.54,2.72,2.72,0,0,1-.08-.73,2.13,2.13,0,0,1,.32-1.27,1,1,0,0,1,.88-.45,1,1,0,0,1,.88.45,2.68,2.68,0,0,1,0,2.54Zm-.34-2.21a.63.63,0,0,0-1.09,0,1.92,1.92,0,0,0-.19.94,1.78,1.78,0,0,0,.2.93.58.58,0,0,0,.54.32.59.59,0,0,0,.54-.32,2.29,2.29,0,0,0,0-1.87Z"/><path class="cls-2" d="M16.67,56.52a.82.82,0,0,0-.14-.5.49.49,0,0,0-.4-.17.61.61,0,0,0-.53.27,1.34,1.34,0,0,0-.19.77v1.84H15V55.52h.45v.53a1.29,1.29,0,0,1,.34-.48.71.71,0,0,1,.47-.17c.6,0,.9.38.91,1.12Z"/><path class="cls-2" d="M20.08,58.87a1.34,1.34,0,0,1-.49-.07.53.53,0,0,1-.29-.21.74.74,0,0,1-.14-.36,2.68,2.68,0,0,1,0-.52V56.07h-.79v-.42h.79v-.77l.45-.17v.94h1v.42h-1v1.55a3.32,3.32,0,0,0,0,.35.57.57,0,0,0,.08.25.35.35,0,0,0,.2.15.84.84,0,0,0,.35.05l.39,0v.45Z"/><path class="cls-2" d="M23.2,56.42v2.36h-.46V56.42h-.83V56h.83v-.62a.88.88,0,0,1,.25-.69,1.12,1.12,0,0,1,.75-.21l.49,0V55h-.39a.75.75,0,0,0-.49.13.5.5,0,0,0-.15.41V56h1v.42Z"/><path class="cls-2" d="M27.55,58.39a1,1,0,0,1-.89.45,1.18,1.18,0,0,1-.5-.11,1.08,1.08,0,0,1-.37-.34,1.41,1.41,0,0,1-.24-.54,2.7,2.7,0,0,1-.09-.73,2.21,2.21,0,0,1,.32-1.27,1.1,1.1,0,0,1,1.77,0,2.68,2.68,0,0,1,0,2.54Zm-.34-2.21a.63.63,0,0,0-1.09,0,1.81,1.81,0,0,0-.19.94,1.9,1.9,0,0,0,.19.93.62.62,0,0,0,1.09,0,2.4,2.4,0,0,0,0-1.87Z"/><path class="cls-2" d="M29.11,58.78v-.42H30V54.9h-.71v-.42H30.5v3.88h.93v.42Z"/><path class="cls-2" d="M32.71,58.78v-.42h.93V57c0-.46,0-.9,0-1.32h.45v2.69H35v.42Zm.92-3.7v-.6h.48v.6Z"/><path class="cls-2" d="M38.36,58.39a1,1,0,0,1-.89.45,1.18,1.18,0,0,1-.5-.11,1.08,1.08,0,0,1-.37-.34,1.41,1.41,0,0,1-.24-.54,2.7,2.7,0,0,1-.09-.73,2.21,2.21,0,0,1,.32-1.27,1.1,1.1,0,0,1,1.77,0,2.68,2.68,0,0,1,0,2.54ZM38,56.18a.63.63,0,0,0-1.09,0,2.4,2.4,0,0,0,0,1.87.62.62,0,0,0,1.09,0,2.4,2.4,0,0,0,0-1.87Z"/><path class="cls-2" d="M8.93,65.29H8.42L7.26,61.14h.49l.93,3.53.9-3.53h.48Z"/><path class="cls-2" d="M11.13,65.29V61.14h2.23v.51H11.6v1.24h1.61v.47H11.6v1.43h1.8v.5Z"/><path class="cls-2" d="M16.52,65.29a1.65,1.65,0,0,1-.09-.56l0-.54a1.55,1.55,0,0,0,0-.36.43.43,0,0,0-.12-.21.61.61,0,0,0-.23-.09l-.36,0h-.49v1.78h-.49V61.14h1.21a1,1,0,0,1,.81.31,1.27,1.27,0,0,1,.27.88,1,1,0,0,1-.47.94.59.59,0,0,1,.19.11.42.42,0,0,1,.11.15.71.71,0,0,1,.06.22c0,.08,0,.17,0,.28l0,.67A1.82,1.82,0,0,0,17,65a.28.28,0,0,0,.11.17v.11ZM16.41,62a.46.46,0,0,0-.14-.21.52.52,0,0,0-.22-.12,1.51,1.51,0,0,0-.32,0h-.58v1.42h.55a.85.85,0,0,0,.56-.16.69.69,0,0,0,.19-.57A1,1,0,0,0,16.41,62Z"/><path class="cls-2" d="M20.66,64.63a1.17,1.17,0,0,1-.25.42,1.2,1.2,0,0,1-.4.26,1.33,1.33,0,0,1-.54.1,1.18,1.18,0,0,1-.93-.38,1.79,1.79,0,0,1-.36-1.11h.46a1.05,1.05,0,0,0,.24.73.78.78,0,0,0,.61.25.8.8,0,0,0,.57-.2.71.71,0,0,0,.22-.55.72.72,0,0,0-.07-.32.57.57,0,0,0-.19-.19,3.24,3.24,0,0,0-.31-.13l-.43-.13a4.09,4.09,0,0,1-.42-.16,1,1,0,0,1-.31-.21.79.79,0,0,1-.2-.3,1.33,1.33,0,0,1-.06-.44,1.37,1.37,0,0,1,.08-.51,1.09,1.09,0,0,1,.23-.39,1.16,1.16,0,0,1,.36-.25,1.19,1.19,0,0,1,.47-.09,1.16,1.16,0,0,1,.9.35,1.42,1.42,0,0,1,.32,1h-.47a1,1,0,0,0-.22-.64.75.75,0,0,0-1,0,.64.64,0,0,0-.18.47.78.78,0,0,0,.05.3.4.4,0,0,0,.15.19.7.7,0,0,0,.26.13l.4.12.48.15a1.21,1.21,0,0,1,.35.21.81.81,0,0,1,.21.32,1.36,1.36,0,0,1,.08.49A1.53,1.53,0,0,1,20.66,64.63Z"/><path class="cls-2" d="M22.16,65.29v-.47h.67v-3.2h-.67v-.48H24v.48H23.3v3.2H24v.47Z"/><path class="cls-2" d="M27.69,64.15a2.16,2.16,0,0,1-.27.69,1.3,1.3,0,0,1-.42.42,1,1,0,0,1-.55.15,1.06,1.06,0,0,1-.55-.15,1.27,1.27,0,0,1-.41-.42,2.16,2.16,0,0,1-.27-.69,4.31,4.31,0,0,1-.09-.93,4.41,4.41,0,0,1,.09-.94,2.42,2.42,0,0,1,.26-.69,1.4,1.4,0,0,1,.42-.42,1,1,0,0,1,.55-.14,1.1,1.1,0,0,1,.55.14,1.24,1.24,0,0,1,.42.43,2.16,2.16,0,0,1,.27.69,4.37,4.37,0,0,1,0,1.86ZM27.06,62a.64.64,0,0,0-1.21,0,2.82,2.82,0,0,0-.22,1.26,2.74,2.74,0,0,0,.22,1.25.64.64,0,0,0,1.21,0,2.77,2.77,0,0,0,.22-1.25A2.82,2.82,0,0,0,27.06,62Z"/><path class="cls-2" d="M30.62,65.29,29.31,62v3.34h-.43V61.14h.61l1.31,3.4v-3.4h.43v4.15Z"/><path class="cls-2" d="M38.1,64.87a1.06,1.06,0,0,1-1.85,0,4.21,4.21,0,0,1,0-3.22,1.06,1.06,0,0,1,1.85,0,4.34,4.34,0,0,1,0,3.22ZM37.75,62a.61.61,0,0,0-1.15,0,4.43,4.43,0,0,0,0,2.5.61.61,0,0,0,1.15,0,4.68,4.68,0,0,0,0-2.5Z"/><path class="cls-2" d="M41.7,64.87a1.06,1.06,0,0,1-1.85,0,4.21,4.21,0,0,1,0-3.22,1.06,1.06,0,0,1,1.85,0,4.34,4.34,0,0,1,0,3.22ZM41.35,62a.61.61,0,0,0-1.15,0,4.43,4.43,0,0,0,0,2.5.61.61,0,0,0,1.15,0,4.68,4.68,0,0,0,0-2.5Z"/><path class="cls-2" d="M43.14,65.29h0a2.27,2.27,0,0,1,.07-.61,2.06,2.06,0,0,1,.21-.48,2.66,2.66,0,0,1,.36-.4,4.33,4.33,0,0,1,.5-.36l.31-.19a1.36,1.36,0,0,0,.4-.39,1,1,0,0,0,.12-.5.76.76,0,0,0-.19-.54.7.7,0,0,0-.52-.2.61.61,0,0,0-.52.25,1.13,1.13,0,0,0-.19.71v0h-.47v-.08a1.89,1.89,0,0,1,.09-.6,1.11,1.11,0,0,1,.62-.73,1.26,1.26,0,0,1,.49-.1,1.24,1.24,0,0,1,.48.09,1,1,0,0,1,.38.26,1.17,1.17,0,0,1,.24.39,1.35,1.35,0,0,1,.08.5,1.49,1.49,0,0,1-.18.75,1.68,1.68,0,0,1-.59.56l-.31.18-.32.21a1.27,1.27,0,0,0-.25.21,1.08,1.08,0,0,0-.18.24.86.86,0,0,0-.11.28H45.6v.51Z"/><path class="cls-2" d="M9.83,71a1.82,1.82,0,0,1-.27.52,1.08,1.08,0,0,1-.39.32,1,1,0,0,1-.49.11,1.15,1.15,0,0,1-.55-.14,1.21,1.21,0,0,1-.41-.43,2.16,2.16,0,0,1-.27-.69,4.85,4.85,0,0,1,0-1.86,2.16,2.16,0,0,1,.27-.69,1.1,1.1,0,0,1,.41-.42,1.06,1.06,0,0,1,.55-.15,1.13,1.13,0,0,1,.45.09,1.41,1.41,0,0,1,.37.27,1.64,1.64,0,0,1,.26.43,2.34,2.34,0,0,1,.15.58H9.42a1.3,1.3,0,0,0-.27-.65.65.65,0,0,0-.47-.22.71.71,0,0,0-.6.43,3.57,3.57,0,0,0,0,2.52.69.69,0,0,0,.6.43.63.63,0,0,0,.52-.29,1.71,1.71,0,0,0,.28-.86H10A2.89,2.89,0,0,1,9.83,71Z"/><path class="cls-2" d="M13.35,71.82,13,70.6H11.54l-.37,1.22h-.48L12,67.66h.52l1.32,4.16Zm-1.09-3.56-.55,1.89h1.11Z"/><path class="cls-2" d="M9.51,84.83H9.08L8.66,82.1l-.41,2.73H7.82l-.69-3.22h.44L8,84.12l.35-2.51h.56l.35,2.51.46-2.51h.45Z"/><path class="cls-2" d="M13.11,84.83h-.44l-.41-2.73-.41,2.73h-.43l-.69-3.22h.44l.46,2.51L12,81.61h.56l.35,2.51.46-2.51h.44Z"/><path class="cls-2" d="M16.71,84.83h-.44l-.41-2.73-.41,2.73H15l-.69-3.22h.44l.46,2.51.35-2.51h.56l.35,2.51L17,81.61h.44Z"/><path class="cls-2" d="M19.11,84.72v-.89h.71v.89Z"/><path class="cls-2" d="M24.12,84.2a1.22,1.22,0,0,1-.24.4,1,1,0,0,1-.35.25,1,1,0,0,1-.44.09,1,1,0,0,1-.87-.45,2.22,2.22,0,0,1-.31-1.26A3.2,3.2,0,0,1,22,82.5a1.86,1.86,0,0,1,.24-.55,1,1,0,0,1,.38-.33,1,1,0,0,1,.49-.12,1.25,1.25,0,0,1,.45.08,1,1,0,0,1,.34.24,1.1,1.1,0,0,1,.23.37,1.52,1.52,0,0,1,.09.49h-.45a.82.82,0,0,0-.18-.53.64.64,0,0,0-1,.13,1.79,1.79,0,0,0-.19.93,1.93,1.93,0,0,0,.18.94.59.59,0,0,0,.54.32.57.57,0,0,0,.46-.21,1,1,0,0,0,.22-.58h.44A2.09,2.09,0,0,1,24.12,84.2Z"/><path class="cls-2" d="M27.71,84.2a1.05,1.05,0,0,1-.23.4,1,1,0,0,1-.35.25,1,1,0,0,1-.44.09,1,1,0,0,1-.87-.45,2.22,2.22,0,0,1-.31-1.26,3.2,3.2,0,0,1,.08-.73,1.86,1.86,0,0,1,.24-.55,1,1,0,0,1,.38-.33,1,1,0,0,1,.49-.12,1.29,1.29,0,0,1,.45.08,1,1,0,0,1,.34.24,1.1,1.1,0,0,1,.23.37,1.85,1.85,0,0,1,.09.49h-.45a.82.82,0,0,0-.18-.53A.6.6,0,0,0,26.7,82a.6.6,0,0,0-.53.32,1.78,1.78,0,0,0-.2.93,1.92,1.92,0,0,0,.19.94.59.59,0,0,0,.54.32.57.57,0,0,0,.46-.21,1,1,0,0,0,.22-.58h.44A1.72,1.72,0,0,1,27.71,84.2Z"/><path class="cls-2" d="M31.35,84a1.86,1.86,0,0,1-.22.55,1,1,0,0,1-.35.34.93.93,0,0,1-.44.11.72.72,0,0,1-.45-.15,1.14,1.14,0,0,1-.34-.45v.49H29.1v-4.3h.45v1.58a.88.88,0,0,1,.79-.61.83.83,0,0,1,.44.12,1,1,0,0,1,.35.34,1.73,1.73,0,0,1,.22.53,3.26,3.26,0,0,1,.08.73A3.11,3.11,0,0,1,31.35,84Zm-.58-1.65a.56.56,0,0,0-.5-.31.59.59,0,0,0-.53.31,1.91,1.91,0,0,0-.18.93,2,2,0,0,0,.18.94.59.59,0,0,0,.53.31.57.57,0,0,0,.5-.32,2.37,2.37,0,0,0,0-1.86Z"/><path class="cls-2" d="M34.82,84.89c-.28,0-.42-.16-.42-.47h0a1.16,1.16,0,0,1-.92.51.76.76,0,0,1-.61-.25,1,1,0,0,1-.21-.69,1.42,1.42,0,0,1,.06-.44.75.75,0,0,1,.18-.3.69.69,0,0,1,.32-.19,1.66,1.66,0,0,1,.44-.11l.39,0a.53.53,0,0,0,.21-.06.17.17,0,0,0,.08-.12,1.47,1.47,0,0,0,0-.25c0-.33-.19-.49-.58-.49s-.6.19-.6.58h-.41v0a.93.93,0,0,1,1-1,1.06,1.06,0,0,1,.77.24,1,1,0,0,1,.24.73v1.66a.74.74,0,0,0,0,.24s.06.08.14.08l.11,0v.41A.85.85,0,0,1,34.82,84.89Zm-.48-1.7a.84.84,0,0,1-.37.14l-.42.08a.57.57,0,0,0-.33.16.53.53,0,0,0-.11.36c0,.36.15.53.45.53a1.06,1.06,0,0,0,.31,0,.82.82,0,0,0,.25-.16.6.6,0,0,0,.16-.24.75.75,0,0,0,.06-.31Z"/><path class="cls-2" d="M37.11,84.72v-.89h.71v.89Z"/><path class="cls-2" d="M41.91,84.83h-.43l-.42-2.73-.41,2.73h-.43l-.68-3.22H40l.46,2.51.36-2.51h.55l.35,2.51.47-2.51h.44Z"/><path class="cls-2" d="M45.55,84.49a1,1,0,0,1-.89.45,1.18,1.18,0,0,1-.5-.11,1.11,1.11,0,0,1-.38-.34,1.92,1.92,0,0,1-.24-.54,3.2,3.2,0,0,1-.08-.73A2.18,2.18,0,0,1,43.78,82a1.1,1.1,0,0,1,1.77,0,2.68,2.68,0,0,1,0,2.54Zm-.34-2.21a.63.63,0,0,0-1.09,0,2.4,2.4,0,0,0,0,1.87.62.62,0,0,0,1.09,0,2.4,2.4,0,0,0,0-1.87Z"/><path class="cls-2" d="M49.07,82.62a.8.8,0,0,0-.14-.5.5.5,0,0,0-.4-.17.6.6,0,0,0-.53.27,1.27,1.27,0,0,0-.19.77v1.84h-.46V81.62h.46v.53a1.18,1.18,0,0,1,.34-.48.71.71,0,0,1,.47-.17c.59,0,.89.38.9,1.12Z"/><path class="cls-2" d="M52,82.85l1,2h-.51l-.81-1.67-.48.53v1.14h-.45v-4.3h.45v2.53l1.26-1.45H53Z"/><path class="cls-1" d="M30.19,16.73a6.25,6.25,0,0,0-6.88-2.43,6.25,6.25,0,0,1,3.4,2.43,4.09,4.09,0,0,0,5.11,1.37A4,4,0,0,1,30.19,16.73Z"/><path class="cls-1" d="M10.57,20.3A14.51,14.51,0,0,1,23.31,5.92a14.27,14.27,0,0,0-1.74-.1,14.48,14.48,0,0,0,0,29,14.27,14.27,0,0,0,1.74-.1A14.5,14.5,0,0,1,10.57,20.3Z"/><path class="cls-1" d="M30.24,23.79a4.06,4.06,0,0,1,1.67-1.42,4.12,4.12,0,0,0-5.15,1.42,6.27,6.27,0,0,1-3.45,2.52,6.29,6.29,0,0,0,6.93-2.52Z"/><path class="cls-1" d="M31.82,18.1A4.11,4.11,0,0,0,36.93,12a14.49,14.49,0,0,0-11.88-6.2,16.6,16.6,0,0,0-1.74.1"/><path class="cls-1" d="M23.31,34.68a14.27,14.27,0,0,0,1.74.1,14.47,14.47,0,0,0,12-6.38,4.12,4.12,0,0,0-5.15-6"/><path class="cls-1" d="M49.29,16.73a6.26,6.26,0,0,0-5.13-2.68,6.33,6.33,0,0,0-1.75.25,6.21,6.21,0,0,1,3.4,2.43,4.11,4.11,0,0,0,5.12,1.37A4,4,0,0,1,49.29,16.73Z"/><path class="cls-1" d="M29.68,20.3A14.51,14.51,0,0,1,42.42,5.92a14.48,14.48,0,1,0,0,28.76A14.5,14.5,0,0,1,29.68,20.3Z"/><path class="cls-1" d="M49.34,23.79A4.09,4.09,0,0,1,51,22.37a4.12,4.12,0,0,0-5.15,1.42,6.3,6.3,0,0,1-3.45,2.52,6.28,6.28,0,0,0,6.92-2.52Z"/><path class="cls-1" d="M50.93,18.1A4.11,4.11,0,0,0,56,12a14.5,14.5,0,0,0-11.88-6.2,16.6,16.6,0,0,0-1.74.1"/><path class="cls-1" d="M42.42,34.68a14.27,14.27,0,0,0,1.74.1,14.46,14.46,0,0,0,12-6.38,4.11,4.11,0,0,0-5.14-6"/><path class="cls-1" d="M68.4,16.73a6.25,6.25,0,0,0-6.88-2.43,6.25,6.25,0,0,1,3.4,2.43A4.09,4.09,0,0,0,70,18.1,4,4,0,0,1,68.4,16.73Z"/><path class="cls-1" d="M48.78,20.3A14.51,14.51,0,0,1,61.52,5.92a14.27,14.27,0,0,0-1.74-.1,14.48,14.48,0,0,0,0,29,14.27,14.27,0,0,0,1.74-.1A14.5,14.5,0,0,1,48.78,20.3Z"/><path class="cls-1" d="M68.45,23.79a4.06,4.06,0,0,1,1.67-1.42A4.12,4.12,0,0,0,65,23.79a6.27,6.27,0,0,1-3.45,2.52,6.29,6.29,0,0,0,6.93-2.52Z"/><path class="cls-1" d="M70,18.1A4.11,4.11,0,0,0,75.14,12a14.49,14.49,0,0,0-11.88-6.2,16.6,16.6,0,0,0-1.74.1"/><path class="cls-1" d="M61.52,34.68a14.27,14.27,0,0,0,1.74.1,14.47,14.47,0,0,0,12-6.38,4.12,4.12,0,0,0-5.15-6"/><path class="cls-1" d="M87.5,16.73a6.26,6.26,0,0,0-5.13-2.68,6.33,6.33,0,0,0-1.75.25A6.21,6.21,0,0,1,84,16.73a4.11,4.11,0,0,0,5.12,1.37A4,4,0,0,1,87.5,16.73Z"/><path class="cls-1" d="M67.89,20.3A14.51,14.51,0,0,1,80.63,5.92a14.48,14.48,0,1,0,0,28.76A14.5,14.5,0,0,1,67.89,20.3Z"/><path class="cls-1" d="M87.56,23.79a4,4,0,0,1,1.67-1.42,4.12,4.12,0,0,0-5.15,1.42,6.3,6.3,0,0,1-3.45,2.52,6.29,6.29,0,0,0,6.93-2.52Z"/><path class="cls-1" d="M89.14,18.1A4.11,4.11,0,0,0,94.25,12a14.5,14.5,0,0,0-11.88-6.2,16.6,16.6,0,0,0-1.74.1"/><path class="cls-1" d="M80.63,34.68a14.27,14.27,0,0,0,1.74.1,14.46,14.46,0,0,0,12-6.38,4.11,4.11,0,0,0-5.14-6"/></g></g></svg>