<svg xmlns="http://www.w3.org/2000/svg" viewBox="0 0 133.53 91.25"><defs><style>.cls-1{fill:none;stroke:#fff;stroke-miterlimit:10;stroke-width:0.75px;}.cls-2{font-size:5.44px;fill:#fff;font-family:MonospaceTypewriter, MonospaceTypewriter;letter-spacing:0.08em;}.cls-3{letter-spacing:0.03em;}.cls-4{letter-spacing:0.04em;}.cls-5{letter-spacing:-0.07em;}.cls-6{letter-spacing:0.07em;}.cls-7{letter-spacing:0.04em;}</style></defs><title>Asset 1</title><g id="Layer_2" data-name="Layer 2"><g id="LANDING_PAGE" data-name="LANDING PAGE"><rect class="cls-1" x="0.38" y="0.38" width="132.78" height="90.5" rx="13.12" ry="13.12"/><text class="cls-2" transform="translate(49.52 45.73)">2<tspan class="cls-3" x="3.6" y="0">0</tspan><tspan class="cls-4" x="6.94" y="0">1</tspan><tspan x="10.31" y="0">8/07-06</tspan><tspan x="-26.81" y="6.52">BOAKYE-AGYEMAN, Ch</tspan><tspan class="cls-5" x="37.9" y="6.52">r</tspan><tspan class="cls-6" x="40.72" y="6.52">istian</tspan><tspan x="1.55" y="13.05">Portfolio</tspan><tspan x="-1.9" y="19.57">VERS</tspan><tspan class="cls-7" x="12.5" y="19.57">I</tspan><tspan x="15.89" y="19.57">ON 002</tspan><tspan x="14.16" y="26.1">CA</tspan><tspan x="-5.65" y="39.15">www.ccba.work</tspan></text><path class="cls-1" d="M45.19,16.73a6.25,6.25,0,0,0-6.88-2.43,6.27,6.27,0,0,1,3.4,2.43,4.11,4.11,0,0,0,5.11,1.37A4.09,4.09,0,0,1,45.19,16.73Z"/><path class="cls-1" d="M25.57,20.3A14.5,14.5,0,0,1,38.31,5.92a14.48,14.48,0,1,0,0,28.75A14.5,14.5,0,0,1,25.57,20.3Z"/><path class="cls-1" d="M45.24,23.79a4.09,4.09,0,0,1,1.67-1.43,4.11,4.11,0,0,0-5.15,1.43,6.26,6.26,0,0,1-3.45,2.51,6.25,6.25,0,0,0,6.93-2.51Z"/><path class="cls-1" d="M46.82,18.1A4.11,4.11,0,0,0,51.93,12a14.48,14.48,0,0,0-13.62-6.1"/><path class="cls-1" d="M38.31,34.68A14.48,14.48,0,0,0,52.06,28.4a4.11,4.11,0,0,0-5.15-6"/><path class="cls-1" d="M64.29,16.73a6.25,6.25,0,0,0-6.88-2.43,6.27,6.27,0,0,1,3.4,2.43,4.11,4.11,0,0,0,5.11,1.37A4.09,4.09,0,0,1,64.29,16.73Z"/><path class="cls-1" d="M44.68,20.3A14.5,14.5,0,0,1,57.42,5.92a14.48,14.48,0,1,0,0,28.75A14.5,14.5,0,0,1,44.68,20.3Z"/><path class="cls-1" d="M64.34,23.79A4.09,4.09,0,0,1,66,22.37a4.11,4.11,0,0,0-5.15,1.43,6.26,6.26,0,0,1-3.45,2.51,6.25,6.25,0,0,0,6.93-2.51Z"/><path class="cls-1" d="M65.93,18.1A4.11,4.11,0,0,0,71,12a14.48,14.48,0,0,0-13.62-6.1"/><path class="cls-1" d="M57.42,34.68A14.48,14.48,0,0,0,71.16,28.4a4.11,4.11,0,0,0-5.15-6"/><path class="cls-1" d="M83.4,16.73a6.25,6.25,0,0,0-6.88-2.43,6.27,6.27,0,0,1,3.4,2.43A4.11,4.11,0,0,0,85,18.1,4.09,4.09,0,0,1,83.4,16.73Z"/><path class="cls-1" d="M63.78,20.3A14.5,14.5,0,0,1,76.52,5.92a14.48,14.48,0,1,0,0,28.75A14.5,14.5,0,0,1,63.78,20.3Z"/><path class="cls-1" d="M83.45,23.79a4.09,4.09,0,0,1,1.67-1.43A4.11,4.11,0,0,0,80,23.79a6.26,6.26,0,0,1-3.45,2.51,6.25,6.25,0,0,0,6.93-2.51Z"/><path class="cls-1" d="M85,18.1A4.11,4.11,0,0,0,90.14,12a14.48,14.48,0,0,0-13.62-6.1"/><path class="cls-1" d="M76.52,34.68A14.48,14.48,0,0,0,90.27,28.4a4.11,4.11,0,0,0-5.15-6"/><path class="cls-1" d="M102.5,16.73a6.25,6.25,0,0,0-6.88-2.43A6.27,6.27,0,0,1,99,16.73a4.11,4.11,0,0,0,5.11,1.37A4.09,4.09,0,0,1,102.5,16.73Z"/><path class="cls-1" d="M82.89,20.3A14.5,14.5,0,0,1,95.63,5.92a14.48,14.48,0,1,0,0,28.75A14.5,14.5,0,0,1,82.89,20.3Z"/><path class="cls-1" d="M102.56,23.79a4.09,4.09,0,0,1,1.67-1.43,4.11,4.11,0,0,0-5.15,1.43,6.26,6.26,0,0,1-3.45,2.51,6.25,6.25,0,0,0,6.93-2.51Z"/><path class="cls-1" d="M104.14,18.1A4.11,4.11,0,0,0,109.25,12a14.48,14.48,0,0,0-13.62-6.1"/><path class="cls-1" d="M95.63,34.68a14.48,14.48,0,0,0,13.75-6.28,4.11,4.11,0,0,0-5.15-6"/></g></g></svg>