<svg xmlns="http://www.w3.org/2000/svg" viewBox="0 0 133.53 91.25"><defs><style>.cls-1{fill:#fff;}.cls-2,.cls-3{fill:none;stroke:#fff;stroke-miterlimit:10;}.cls-2{stroke-width:0.25px;}.cls-3{stroke-width:0.75px;}</style></defs><title>Logo_LeftAlligned_v2</title><g id="Layer_2" data-name="Layer 2"><g id="PROJECT_PAGE" data-name="PROJECT PAGE"><path class="cls-1" d="M7.32,46v0a2.6,2.6,0,0,1,.07-.6,1.51,1.51,0,0,1,.22-.48A1.65,1.65,0,0,1,8,44.5a3.53,3.53,0,0,1,.51-.37l.3-.19a1.22,1.22,0,0,0,.4-.38.94.94,0,0,0,.13-.51.78.78,0,0,0-.19-.53.69.69,0,0,0-.53-.21.61.61,0,0,0-.52.25,1.22,1.22,0,0,0-.19.71v0H7.41v-.08a1.9,1.9,0,0,1,.08-.6,1.48,1.48,0,0,1,.24-.45,1.17,1.17,0,0,1,.38-.28,1.38,1.38,0,0,1,1,0,1,1,0,0,1,.37.25,1,1,0,0,1,.24.39,1.36,1.36,0,0,1,.09.51,1.48,1.48,0,0,1-.19.74,1.62,1.62,0,0,1-.59.57l-.31.18a2.36,2.36,0,0,0-.31.2,3,3,0,0,0-.26.21A1.88,1.88,0,0,0,8,45.2a1.36,1.36,0,0,0-.11.28H9.79V46Z"/><path class="cls-1" d="M13.08,45.58a1.07,1.07,0,0,1-1.85,0,4.21,4.21,0,0,1,0-3.22,1.06,1.06,0,0,1,1.85,0,4.24,4.24,0,0,1,0,3.23Zm-.35-2.87a.57.57,0,0,0-.57-.4.6.6,0,0,0-.58.4A3.56,3.56,0,0,0,11.41,44a3.48,3.48,0,0,0,.17,1.25.59.59,0,0,0,.58.41.57.57,0,0,0,.57-.41A3.27,3.27,0,0,0,12.9,44,3.34,3.34,0,0,0,12.73,42.71Z"/><path class="cls-1" d="M15.67,46V43h-.84v-.42a1.15,1.15,0,0,0,.68-.19.84.84,0,0,0,.28-.61h.35V46Z"/><path class="cls-1" d="M20,45.33a1.1,1.1,0,0,1-.24.42,1.13,1.13,0,0,1-.39.27,1.42,1.42,0,0,1-.52.09,1.38,1.38,0,0,1-.52-.09,1.13,1.13,0,0,1-.39-.27,1.1,1.1,0,0,1-.24-.42,1.51,1.51,0,0,1-.09-.53,1,1,0,0,1,.6-1,.91.91,0,0,1-.48-.88,1.16,1.16,0,0,1,.08-.42.91.91,0,0,1,.22-.34,1.11,1.11,0,0,1,.36-.23,1.3,1.3,0,0,1,.46-.08,1.34,1.34,0,0,1,.46.08,1.07,1.07,0,0,1,.35.23.8.8,0,0,1,.22.34,1,1,0,0,1,.08.42.92.92,0,0,1-.47.88,1,1,0,0,1,.6,1A1.51,1.51,0,0,1,20,45.33Zm-.61-1.1a.8.8,0,0,0-1.08,0,.77.77,0,0,0-.2.56.89.89,0,0,0,.2.6.77.77,0,0,0,1.08,0,.89.89,0,0,0,.2-.6A.77.77,0,0,0,19.41,44.23Zm-.08-1.77a.64.64,0,0,0-.46-.17.62.62,0,0,0-.46.17.64.64,0,0,0-.16.47.68.68,0,0,0,.16.48.68.68,0,0,0,.92,0,.68.68,0,0,0,.16-.48A.64.64,0,0,0,19.33,42.46Z"/><path class="cls-1" d="M22,46.53h-.35l1.24-4.82h.36Z"/><path class="cls-1" d="M27,45.58a1,1,0,0,1-.93.53,1,1,0,0,1-.92-.54,4.21,4.21,0,0,1,0-3.22,1.06,1.06,0,0,1,1.85,0,4.36,4.36,0,0,1,0,3.23Zm-.35-2.87a.59.59,0,0,0-.58-.4.57.57,0,0,0-.57.4A3.3,3.3,0,0,0,25.32,44a3.23,3.23,0,0,0,.18,1.25.57.57,0,0,0,.57.41.58.58,0,0,0,.58-.41A3.48,3.48,0,0,0,26.82,44,3.56,3.56,0,0,0,26.65,42.71Z"/><path class="cls-1" d="M29.92,44.08A7.32,7.32,0,0,0,29.45,46h-.52a6.94,6.94,0,0,1,.48-1.87,7.08,7.08,0,0,1,1-1.65h-2v-.54H30.9v.5A6.91,6.91,0,0,0,29.92,44.08Z"/><path class="cls-1" d="M32.65,44.58v-.47h1.24v.47Z"/><path class="cls-1" d="M37.8,45.58a1.08,1.08,0,0,1-1.86,0,4.34,4.34,0,0,1,0-3.22,1.07,1.07,0,0,1,1.86,0,4.36,4.36,0,0,1,0,3.23Zm-.35-2.87a.62.62,0,0,0-1.16,0A3.56,3.56,0,0,0,36.12,44a3.48,3.48,0,0,0,.17,1.25.62.62,0,0,0,1.16,0A3.48,3.48,0,0,0,37.62,44,3.56,3.56,0,0,0,37.45,42.71Z"/><path class="cls-1" d="M41.64,45.28a1.43,1.43,0,0,1-.24.44A1.24,1.24,0,0,1,41,46a1.18,1.18,0,0,1-.5.1,1.07,1.07,0,0,1-1-.5,2.56,2.56,0,0,1-.34-1.46,3.37,3.37,0,0,1,.36-1.74,1.11,1.11,0,0,1,1-.6,1.09,1.09,0,0,1,.81.3,1.29,1.29,0,0,1,.32.85h-.48a.81.81,0,0,0-.19-.5.62.62,0,0,0-.46-.17c-.52,0-.8.51-.84,1.51a1,1,0,0,1,.85-.46,1.15,1.15,0,0,1,.46.1,1,1,0,0,1,.36.27,1.37,1.37,0,0,1,.24.43,1.76,1.76,0,0,1,.09.58A1.69,1.69,0,0,1,41.64,45.28ZM41,44.07a.62.62,0,0,0-.5-.24.68.68,0,0,0-.56.24,1,1,0,0,0-.2.66,1,1,0,0,0,.2.66.69.69,0,0,0,1.06,0,1.06,1.06,0,0,0,.2-.66A1,1,0,0,0,41,44.07Z"/><path class="cls-1" d="M9.5,52.19a1,1,0,0,1-.84.33H7.31V48.37H8.59a1.11,1.11,0,0,1,.79.26,1.1,1.1,0,0,1,.26.78,1,1,0,0,1-.12.52,1,1,0,0,1-.37.35.82.82,0,0,1,.48.35,1.18,1.18,0,0,1,.17.65A1.3,1.3,0,0,1,9.5,52.19ZM9,49a.66.66,0,0,0-.48-.14H7.79v1.25h.7A.7.7,0,0,0,9,50a.65.65,0,0,0,.17-.48A.56.56,0,0,0,9,49Zm.11,1.75a.83.83,0,0,0-.56-.16H7.79V52h.82c.46,0,.69-.24.69-.73A.69.69,0,0,0,9.12,50.76Z"/><path class="cls-1" d="M13.39,51.38a2,2,0,0,1-.27.68,1.24,1.24,0,0,1-.42.43,1,1,0,0,1-.55.15,1.06,1.06,0,0,1-.55-.15,1.21,1.21,0,0,1-.41-.43,2,2,0,0,1-.27-.68,4.45,4.45,0,0,1-.09-.93,4.35,4.35,0,0,1,.09-.94,2.42,2.42,0,0,1,.26-.69,1.29,1.29,0,0,1,.42-.42,1.06,1.06,0,0,1,.55-.15,1,1,0,0,1,.55.15,1.24,1.24,0,0,1,.42.43,2,2,0,0,1,.27.69,4.27,4.27,0,0,1,.1.93A4.42,4.42,0,0,1,13.39,51.38Zm-.63-2.19a.64.64,0,0,0-1.21,0,3.69,3.69,0,0,0,0,2.51.64.64,0,0,0,1.21,0,3.69,3.69,0,0,0,0-2.51Z"/><path class="cls-1" d="M16.84,52.52l-.38-1.22H15l-.37,1.22h-.48l1.31-4.16H16l1.32,4.16ZM15.75,49l-.55,1.89h1.11Z"/><path class="cls-1" d="M20.12,52.52l-1.2-2-.43.52v1.48H18V48.37h.47v2l1.6-2h.57l-1.41,1.74,1.45,2.41Z"/><path class="cls-1" d="M23.23,50.84v1.68h-.48V50.88l-1.23-2.52h.57l.9,2,.88-2h.54Z"/><path class="cls-1" d="M25.43,52.52V48.37h2.23v.5H25.9v1.24h1.61v.48H25.9V52h1.8v.5Z"/><path class="cls-1" d="M29.54,51.11v-.47h1.25v.47Z"/><path class="cls-1" d="M34.85,52.52l-.38-1.22H33l-.37,1.22h-.48l1.31-4.16H34l1.32,4.16ZM33.76,49l-.56,1.89h1.11Z"/><path class="cls-1" d="M38.43,52.52,38.34,52a1.1,1.1,0,0,1-1,.68,1,1,0,0,1-.52-.15,1.37,1.37,0,0,1-.42-.44,2,2,0,0,1-.28-.68,3.68,3.68,0,0,1-.11-.92,4.18,4.18,0,0,1,.1-.92,2.21,2.21,0,0,1,.29-.69,1.26,1.26,0,0,1,.45-.44,1.11,1.11,0,0,1,.58-.15,1,1,0,0,1,.81.36,1.75,1.75,0,0,1,.38,1h-.51a1.17,1.17,0,0,0-.24-.66.58.58,0,0,0-.47-.23.74.74,0,0,0-.66.44,2.8,2.8,0,0,0-.23,1.26,2.66,2.66,0,0,0,.24,1.26.71.71,0,0,0,.62.43.62.62,0,0,0,.32-.09.73.73,0,0,0,.25-.27,1.41,1.41,0,0,0,.17-.41,2.4,2.4,0,0,0,.06-.56v0h-.81v-.48h1.31v2.24Z"/><path class="cls-1" d="M41.23,50.84v1.68h-.48V50.88l-1.23-2.52h.57l.9,2,.88-2h.54Z"/><path class="cls-1" d="M43.43,52.52V48.37h2.23v.5H43.9v1.24h1.6v.48H43.9V52h1.8v.5Z"/><path class="cls-1" d="M49.05,52.52V48.75l-.67,3.77h-.44l-.67-3.77v3.77h-.4V48.37h.64L48.16,52l.66-3.66h.63v4.15Z"/><path class="cls-1" d="M52.85,52.52l-.38-1.22H51l-.38,1.22h-.47l1.31-4.16H52l1.31,4.16ZM51.76,49l-.56,1.89h1.11Z"/><path class="cls-1" d="M55.93,52.52l-1.32-3.35v3.35h-.43V48.37h.62l1.3,3.4v-3.4h.44v4.15Z"/><path class="cls-1" d="M59.16,53.21a.78.78,0,0,1-.62.32v-.41a.5.5,0,0,0,.37-.2.9.9,0,0,0,.1-.49v-.11h-.35v-.9h.72v1A1.39,1.39,0,0,1,59.16,53.21Z"/><path class="cls-1" d="M67.24,51.68a1.71,1.71,0,0,1-.28.52,1.08,1.08,0,0,1-.39.32,1,1,0,0,1-.48.12,1,1,0,0,1-.55-.15,1.21,1.21,0,0,1-.41-.43,2,2,0,0,1-.27-.68,4.42,4.42,0,0,1-.1-.93,4.3,4.3,0,0,1,.1-.94,2.16,2.16,0,0,1,.27-.69,1.18,1.18,0,0,1,.41-.42,1,1,0,0,1,.55-.15,1,1,0,0,1,.45.1,1,1,0,0,1,.36.27,1.38,1.38,0,0,1,.27.42,2.34,2.34,0,0,1,.15.58h-.49a1.35,1.35,0,0,0-.28-.65.61.61,0,0,0-.46-.22.68.68,0,0,0-.6.44,3.54,3.54,0,0,0,0,2.51.69.69,0,0,0,.6.43.64.64,0,0,0,.52-.29,1.77,1.77,0,0,0,.28-.86h.49A2.8,2.8,0,0,1,67.24,51.68Z"/><path class="cls-1" d="M70.29,52.53v-2a1.53,1.53,0,0,0-.1-.63.4.4,0,0,0-.4-.22.66.66,0,0,0-.55.26,1.21,1.21,0,0,0-.19.74v1.86h-.46v-4.3h.46v1.55a1.1,1.1,0,0,1,.32-.43.81.81,0,0,1,.48-.15,1,1,0,0,1,.48.11.9.9,0,0,1,.31.33,1,1,0,0,1,.09.35c0,.13,0,.27,0,.43v2.11Z"/><path class="cls-1" d="M74.07,50.27a.72.72,0,0,0-.14-.49.46.46,0,0,0-.4-.18.62.62,0,0,0-.53.27,1.41,1.41,0,0,0-.18.78v1.83h-.46V49.27h.45v.53a1.41,1.41,0,0,1,.34-.48.71.71,0,0,1,.48-.16q.89,0,.9,1.11Z"/><path class="cls-1" d="M74.93,52.53v-.42h.93V49.42h.45v2.69h.94v.42Zm.92-3.7v-.6h.48v.6Z"/><path class="cls-1" d="M80.51,52.3a1.1,1.1,0,0,1-.84.29,1,1,0,0,1-.8-.29,1.15,1.15,0,0,1-.29-.82H79a.62.62,0,0,0,.69.65.68.68,0,0,0,.47-.15.51.51,0,0,0,.17-.39.48.48,0,0,0,0-.18.25.25,0,0,0-.08-.12.57.57,0,0,0-.13-.08,1.06,1.06,0,0,0-.19-.06l-.5-.15a1.86,1.86,0,0,1-.34-.13.76.76,0,0,1-.24-.18.58.58,0,0,1-.15-.25,1.25,1.25,0,0,1,0-.35,1.16,1.16,0,0,1,.06-.38.72.72,0,0,1,.2-.29.8.8,0,0,1,.32-.2,1.16,1.16,0,0,1,.44-.07,1.23,1.23,0,0,1,.44.07.94.94,0,0,1,.33.2.81.81,0,0,1,.21.3,1,1,0,0,1,.07.39h-.44a.54.54,0,0,0-.17-.38.68.68,0,0,0-.44-.14.65.65,0,0,0-.43.12.42.42,0,0,0-.14.35.29.29,0,0,0,.11.27.87.87,0,0,0,.32.15l.44.12a1.52,1.52,0,0,1,.36.12.78.78,0,0,1,.26.17.76.76,0,0,1,.16.26,1.23,1.23,0,0,1-.24,1.14Z"/><path class="cls-1" d="M83.89,52.63a1.64,1.64,0,0,1-.49-.07.64.64,0,0,1-.29-.22A.74.74,0,0,1,83,52a3.94,3.94,0,0,1,0-.52V49.83h-.79v-.42h.79v-.78l.45-.16v.94h1v.42h-1v1.55c0,.13,0,.25,0,.35a.5.5,0,0,0,.09.25.42.42,0,0,0,.19.15,1.16,1.16,0,0,0,.35,0l.4,0v.45C84.21,52.61,84,52.63,83.89,52.63Z"/><path class="cls-1" d="M85.72,52.53v-.42h.94V49.42h.45v2.69h.94v.42Zm.92-3.7v-.6h.49v.6Z"/><path class="cls-1" d="M91.45,52.54c-.29,0-.43-.16-.43-.46v0a1.15,1.15,0,0,1-.91.52.78.78,0,0,1-.61-.25,1,1,0,0,1-.22-.69,1.44,1.44,0,0,1,.06-.45.67.67,0,0,1,.19-.3.74.74,0,0,1,.31-.19,2.47,2.47,0,0,1,.45-.11l.38-.05a.64.64,0,0,0,.21,0,.18.18,0,0,0,.09-.13,1.7,1.7,0,0,0,0-.25c0-.33-.19-.49-.57-.49s-.61.19-.61.58h-.4v0a.93.93,0,0,1,1-1,1,1,0,0,1,.76.24,1,1,0,0,1,.24.73v1.66a.7.7,0,0,0,0,.24c0,.06.07.08.14.08a.23.23,0,0,0,.11,0v.41A.79.79,0,0,1,91.45,52.54ZM91,50.85a1,1,0,0,1-.38.14l-.42.07a.58.58,0,0,0-.33.17.5.5,0,0,0-.1.36c0,.35.15.52.45.52a.73.73,0,0,0,.3,0,.87.87,0,0,0,.25-.15.81.81,0,0,0,.17-.24.83.83,0,0,0,.06-.32Z"/><path class="cls-1" d="M94.71,52.48v-2a1.47,1.47,0,0,0-.1-.63.38.38,0,0,0-.4-.22.66.66,0,0,0-.55.26,1.21,1.21,0,0,0-.19.74v1.85H93V49.27h.44v.49a.88.88,0,0,1,1.61-.17,1.06,1.06,0,0,1,.09.35c0,.13,0,.27,0,.43v2.11Z"/><path class="cls-1" d="M9.35,57.05a.73.73,0,0,1-.42.21,4.33,4.33,0,0,1-.53,0H7.87v1.76H7.39V54.89H8.63a1.07,1.07,0,0,1,.82.3,1.33,1.33,0,0,1,.27.9A1.21,1.21,0,0,1,9.35,57.05Zm-.17-1.29A.39.39,0,0,0,9,55.55a.46.46,0,0,0-.22-.11,1.47,1.47,0,0,0-.32,0H7.87v1.41h.6a1.69,1.69,0,0,0,.33,0A.71.71,0,0,0,9,56.66a.49.49,0,0,0,.14-.22.89.89,0,0,0,.05-.35A1,1,0,0,0,9.18,55.76Z"/><path class="cls-1" d="M13,58.67a1.09,1.09,0,0,1-1.38.33.92.92,0,0,1-.38-.33,1.92,1.92,0,0,1-.24-.54A3.26,3.26,0,0,1,11,57.4a2.11,2.11,0,0,1,.32-1.27,1,1,0,0,1,.88-.45,1,1,0,0,1,.88.44,2.14,2.14,0,0,1,.33,1.28A2.09,2.09,0,0,1,13,58.67Zm-.34-2.21a.6.6,0,0,0-.54-.32.59.59,0,0,0-.54.32,2.29,2.29,0,0,0,0,1.87.61.61,0,0,0,.54.32.6.6,0,0,0,.54-.32,2.29,2.29,0,0,0,0-1.87Z"/><path class="cls-1" d="M16.56,56.8a.75.75,0,0,0-.14-.5.49.49,0,0,0-.4-.17.63.63,0,0,0-.53.26,1.41,1.41,0,0,0-.18.78V59h-.46V55.8h.45v.53a1.29,1.29,0,0,1,.34-.48.72.72,0,0,1,.48-.17c.59,0,.89.37.9,1.12Z"/><path class="cls-1" d="M20,59.15a1.34,1.34,0,0,1-.49-.07.64.64,0,0,1-.29-.21.82.82,0,0,1-.14-.36A3.8,3.8,0,0,1,19,58V56.35h-.78v-.42H19v-.78l.46-.16v.94h1v.42h-1V57.9c0,.13,0,.25,0,.35a.61.61,0,0,0,.08.25.38.38,0,0,0,.2.15,1.08,1.08,0,0,0,.35.05l.39,0v.45Z"/><path class="cls-1" d="M23.09,56.69v2.36h-.45V56.69H21.8v-.42h.84v-.62a.86.86,0,0,1,.24-.68,1.12,1.12,0,0,1,.75-.21l.49,0v.45l-.2,0h-.19a.82.82,0,0,0-.49.12.51.51,0,0,0-.15.41v.52h1v.42Z"/><path class="cls-1" d="M27.44,58.67a1,1,0,0,1-.88.45,1,1,0,0,1-.5-.12.92.92,0,0,1-.38-.33,1.48,1.48,0,0,1-.24-.54,2.75,2.75,0,0,1-.09-.73,2.18,2.18,0,0,1,.32-1.27,1.1,1.1,0,0,1,1.77,0,2.15,2.15,0,0,1,.32,1.28A2.09,2.09,0,0,1,27.44,58.67Zm-.34-2.21a.62.62,0,0,0-1.09,0,2.4,2.4,0,0,0,0,1.87.62.62,0,0,0,1.09,0,2.29,2.29,0,0,0,0-1.87Z"/><path class="cls-1" d="M29,59.05v-.42h.93V55.18h-.71v-.42h1.17v3.87h.93v.42Z"/><path class="cls-1" d="M32.6,59.05v-.42h.93V57.26c0-.46,0-.9,0-1.31H34v2.68h.94v.42Zm.92-3.69v-.6H34v.6Z"/><path class="cls-1" d="M38.25,58.67a1,1,0,0,1-.88.45,1,1,0,0,1-.5-.12.92.92,0,0,1-.38-.33,1.48,1.48,0,0,1-.24-.54,2.75,2.75,0,0,1-.09-.73,2.18,2.18,0,0,1,.32-1.27,1.1,1.1,0,0,1,1.77,0,2.15,2.15,0,0,1,.32,1.28A2.09,2.09,0,0,1,38.25,58.67Zm-.34-2.21a.62.62,0,0,0-1.09,0,2.4,2.4,0,0,0,0,1.87.62.62,0,0,0,1.09,0,2.29,2.29,0,0,0,0-1.87Z"/><path class="cls-1" d="M8.82,65.57H8.31L7.15,61.41h.5L8.57,65l.9-3.54H10Z"/><path class="cls-1" d="M11,65.57V61.42h2.23v.5H11.49v1.24H13.1v.48H11.49v1.43h1.8v.5Z"/><path class="cls-1" d="M16.41,65.57a2,2,0,0,1-.09-.56l0-.54a1.65,1.65,0,0,0-.05-.37.34.34,0,0,0-.12-.2.48.48,0,0,0-.23-.09l-.36,0H15v1.78h-.48V61.42h1.2a1,1,0,0,1,.81.3,1.3,1.3,0,0,1,.27.88,1,1,0,0,1-.47.94.68.68,0,0,1,.19.11.42.42,0,0,1,.11.16.64.64,0,0,1,.06.22c0,.08,0,.17,0,.28l0,.67a1.08,1.08,0,0,0,0,.3.33.33,0,0,0,.11.18v.11Zm-.11-3.29a.6.6,0,0,0-.14-.21.51.51,0,0,0-.22-.11,1.51,1.51,0,0,0-.32,0H15v1.42h.55a.83.83,0,0,0,.56-.16.71.71,0,0,0,.19-.58A1.06,1.06,0,0,0,16.3,62.28Z"/><path class="cls-1" d="M20.55,64.91a1.13,1.13,0,0,1-.25.41,1,1,0,0,1-.4.27,1.53,1.53,0,0,1-.54.1,1.15,1.15,0,0,1-.93-.39,1.74,1.74,0,0,1-.36-1.1h.47a1,1,0,0,0,.23.72.79.79,0,0,0,.61.26A.82.82,0,0,0,20,65a.73.73,0,0,0,.22-.55.61.61,0,0,0-.07-.32.5.5,0,0,0-.19-.19,1.81,1.81,0,0,0-.31-.13l-.43-.13-.42-.16a1.41,1.41,0,0,1-.31-.21.93.93,0,0,1-.2-.3,1.4,1.4,0,0,1-.06-.45,1.35,1.35,0,0,1,.08-.5,1.09,1.09,0,0,1,.23-.39,1,1,0,0,1,.36-.25,1.19,1.19,0,0,1,.47-.09,1.16,1.16,0,0,1,.9.35,1.37,1.37,0,0,1,.32,1h-.47a1,1,0,0,0-.22-.64.66.66,0,0,0-.51-.22.68.68,0,0,0-.5.18.65.65,0,0,0-.18.48.78.78,0,0,0,.05.3.4.4,0,0,0,.15.19,1.13,1.13,0,0,0,.27.13l.4.12a2.88,2.88,0,0,1,.47.15,1.19,1.19,0,0,1,.35.2.93.93,0,0,1,.21.33,1.17,1.17,0,0,1,.08.49A1.53,1.53,0,0,1,20.55,64.91Z"/><path class="cls-1" d="M22.05,65.57v-.48h.67V61.9h-.67v-.48h1.8v.48h-.66v3.19h.66v.48Z"/><path class="cls-1" d="M27.58,64.42a2,2,0,0,1-.27.69,1.16,1.16,0,0,1-.42.43,1,1,0,0,1-.55.15,1.06,1.06,0,0,1-.55-.15,1.21,1.21,0,0,1-.41-.43,2.21,2.21,0,0,1-.27-.69A4.28,4.28,0,0,1,25,63.5a4.35,4.35,0,0,1,.09-.94,2.16,2.16,0,0,1,.27-.69,1.18,1.18,0,0,1,.41-.42,1.06,1.06,0,0,1,.55-.15,1,1,0,0,1,.55.15,1.16,1.16,0,0,1,.42.43,2,2,0,0,1,.27.69,4.33,4.33,0,0,1,0,1.85ZM27,62.24a.69.69,0,0,0-.61-.44.68.68,0,0,0-.59.44,3.54,3.54,0,0,0,0,2.51.67.67,0,0,0,.59.43.68.68,0,0,0,.61-.43,3.54,3.54,0,0,0,0-2.51Z"/><path class="cls-1" d="M30.51,65.57,29.2,62.22v3.35h-.43V61.42h.61l1.31,3.4v-3.4h.43v4.15Z"/><path class="cls-1" d="M38,65.15a1.06,1.06,0,0,1-1.85,0,4.21,4.21,0,0,1,0-3.22,1,1,0,0,1,.93-.54,1,1,0,0,1,.92.53,3.28,3.28,0,0,1,.32,1.62A3.24,3.24,0,0,1,38,65.15Zm-.35-2.86a.58.58,0,0,0-.57-.41.6.6,0,0,0-.58.41,4.68,4.68,0,0,0,0,2.5.6.6,0,0,0,.58.41.58.58,0,0,0,.57-.41,4.68,4.68,0,0,0,0-2.5Z"/><path class="cls-1" d="M41.59,65.15a1.06,1.06,0,0,1-1.85,0,4.21,4.21,0,0,1,0-3.22,1,1,0,0,1,.93-.54,1,1,0,0,1,.92.53,3.28,3.28,0,0,1,.32,1.62A3.24,3.24,0,0,1,41.59,65.15Zm-.35-2.86a.58.58,0,0,0-.57-.41.6.6,0,0,0-.58.41,4.68,4.68,0,0,0,0,2.5.6.6,0,0,0,.58.41.58.58,0,0,0,.57-.41,4.68,4.68,0,0,0,0-2.5Z"/><path class="cls-1" d="M43,65.57h0A2.27,2.27,0,0,1,43.1,65a1.75,1.75,0,0,1,.21-.48,2.25,2.25,0,0,1,.36-.4,4.33,4.33,0,0,1,.5-.36l.31-.19a1.36,1.36,0,0,0,.4-.39,1,1,0,0,0,.12-.5.76.76,0,0,0-.19-.54.66.66,0,0,0-.52-.2.61.61,0,0,0-.52.25,1.11,1.11,0,0,0-.19.71v0h-.47v-.08a1.85,1.85,0,0,1,.09-.6,1.08,1.08,0,0,1,.24-.45,1,1,0,0,1,.38-.28,1.1,1.1,0,0,1,.49-.1,1.3,1.3,0,0,1,.49.09,1.05,1.05,0,0,1,.37.25,1.22,1.22,0,0,1,.24.4,1.35,1.35,0,0,1,.08.5,1.54,1.54,0,0,1-.18.75,1.68,1.68,0,0,1-.59.56l-.31.18-.32.2a1.79,1.79,0,0,0-.25.22,1.08,1.08,0,0,0-.18.24.78.78,0,0,0-.11.28h1.94v.51Z"/><path class="cls-1" d="M9.72,71.26a2,2,0,0,1-.27.52,1.08,1.08,0,0,1-.39.32,1.14,1.14,0,0,1-.49.11A1,1,0,0,1,8,72.06a1.13,1.13,0,0,1-.42-.42A2.42,2.42,0,0,1,7.34,71,4.31,4.31,0,0,1,7.25,70a4.48,4.48,0,0,1,.09-.94,2.24,2.24,0,0,1,.27-.68A1.16,1.16,0,0,1,8,68a1.09,1.09,0,0,1,.54-.14,1.13,1.13,0,0,1,.45.09,1.07,1.07,0,0,1,.37.27,1.64,1.64,0,0,1,.26.43,2.38,2.38,0,0,1,.15.57H9.31A1.31,1.31,0,0,0,9,68.55a.6.6,0,0,0-.47-.22.69.69,0,0,0-.6.43A2.8,2.8,0,0,0,7.74,70,2.66,2.66,0,0,0,8,71.28a.68.68,0,0,0,.59.43.61.61,0,0,0,.52-.3,1.68,1.68,0,0,0,.28-.86h.49A2.88,2.88,0,0,1,9.72,71.26Z"/><path class="cls-1" d="M13.24,72.1l-.37-1.23H11.43l-.37,1.23h-.48l1.31-4.16h.52l1.32,4.16Zm-1.09-3.56-.55,1.88h1.11Z"/><path class="cls-2" d="M30.08,17a6.24,6.24,0,0,0-6.88-2.44A6.32,6.32,0,0,1,26.6,17a4.12,4.12,0,0,0,5.11,1.37A4.11,4.11,0,0,1,30.08,17Z"/><path class="cls-2" d="M10.46,20.58A14.5,14.5,0,0,1,23.2,6.2a14.22,14.22,0,0,0-1.73-.1,14.48,14.48,0,1,0,0,29A16.56,16.56,0,0,0,23.2,35,14.51,14.51,0,0,1,10.46,20.58Z"/><path class="cls-2" d="M30.13,24.07a4.06,4.06,0,0,1,1.67-1.42,4.11,4.11,0,0,0-5.15,1.42,6.2,6.2,0,0,1-3.45,2.51,6.24,6.24,0,0,0,6.93-2.51Z"/><path class="cls-2" d="M31.71,18.38a4.11,4.11,0,0,0,5.12-6.08A14.52,14.52,0,0,0,24.94,6.1a14.27,14.27,0,0,0-1.74.1"/><path class="cls-2" d="M23.2,35a16.6,16.6,0,0,0,1.74.1,14.49,14.49,0,0,0,12-6.38,4.12,4.12,0,0,0-5.15-6"/><path class="cls-2" d="M49.18,17a6.27,6.27,0,0,0-5.13-2.69,6.2,6.2,0,0,0-1.74.25A6.35,6.35,0,0,1,45.71,17a4.12,4.12,0,0,0,5.11,1.37A4.07,4.07,0,0,1,49.18,17Z"/><path class="cls-2" d="M29.57,20.58A14.5,14.5,0,0,1,42.31,6.2a14.48,14.48,0,1,0-1.74,28.86,16.6,16.6,0,0,0,1.74-.1A14.51,14.51,0,0,1,29.57,20.58Z"/><path class="cls-2" d="M49.24,24.07a4,4,0,0,1,1.67-1.42,4.11,4.11,0,0,0-5.15,1.42,6.2,6.2,0,0,1-3.45,2.51,6.24,6.24,0,0,0,6.93-2.51Z"/><path class="cls-2" d="M50.82,18.38a4.11,4.11,0,0,0,5.11-6.08A14.5,14.5,0,0,0,44.05,6.1a14.27,14.27,0,0,0-1.74.1"/><path class="cls-2" d="M42.31,35a16.6,16.6,0,0,0,1.74.1,14.47,14.47,0,0,0,12-6.38,4.11,4.11,0,0,0-5.14-6"/><path class="cls-2" d="M68.29,17a6.24,6.24,0,0,0-6.88-2.44A6.32,6.32,0,0,1,64.81,17a4.12,4.12,0,0,0,5.11,1.37A4.11,4.11,0,0,1,68.29,17Z"/><path class="cls-2" d="M48.67,20.58A14.51,14.51,0,0,1,61.41,6.2a14.22,14.22,0,0,0-1.73-.1,14.48,14.48,0,1,0,0,29,16.56,16.56,0,0,0,1.73-.1A14.51,14.51,0,0,1,48.67,20.58Z"/><path class="cls-2" d="M68.34,24.07A4.06,4.06,0,0,1,70,22.65a4.11,4.11,0,0,0-5.15,1.42,6.2,6.2,0,0,1-3.45,2.51,6.24,6.24,0,0,0,6.93-2.51Z"/><path class="cls-2" d="M69.92,18.38A4.11,4.11,0,0,0,75,12.3,14.52,14.52,0,0,0,63.15,6.1a14.27,14.27,0,0,0-1.74.1"/><path class="cls-2" d="M61.41,35a16.6,16.6,0,0,0,1.74.1,14.49,14.49,0,0,0,12-6.38,4.12,4.12,0,0,0-5.15-6"/><path class="cls-2" d="M87.39,17a6.27,6.27,0,0,0-5.13-2.69,6.2,6.2,0,0,0-1.74.25A6.35,6.35,0,0,1,83.92,17,4.12,4.12,0,0,0,89,18.38,4.07,4.07,0,0,1,87.39,17Z"/><path class="cls-2" d="M67.78,20.58A14.5,14.5,0,0,1,80.52,6.2a14.27,14.27,0,0,0-1.74-.1,14.48,14.48,0,0,0,0,29,16.6,16.6,0,0,0,1.74-.1A14.51,14.51,0,0,1,67.78,20.58Z"/><path class="cls-2" d="M87.45,24.07a4,4,0,0,1,1.67-1.42A4.11,4.11,0,0,0,84,24.07a6.2,6.2,0,0,1-3.45,2.51,6.24,6.24,0,0,0,6.93-2.51Z"/><path class="cls-2" d="M89,18.38a4.11,4.11,0,0,0,5.11-6.08A14.5,14.5,0,0,0,82.26,6.1a14.27,14.27,0,0,0-1.74.1"/><path class="cls-2" d="M80.52,35a16.6,16.6,0,0,0,1.74.1,14.47,14.47,0,0,0,12-6.38,4.11,4.11,0,0,0-5.14-6"/></g><g id="LANDING_PAGE" data-name="LANDING PAGE"><rect class="cls-3" x="0.38" y="0.38" width="132.78" height="90.5" rx="7.56" ry="7.56"/><path class="cls-1" d="M9.51,84.68H9.07L8.66,82l-.41,2.73H7.82l-.69-3.22h.44L8,84l.35-2.52h.56L9.29,84l.46-2.52h.45Z"/><path class="cls-1" d="M13.11,84.68h-.44L12.26,82l-.41,2.73h-.43l-.69-3.22h.44L11.63,84,12,81.46h.56L12.89,84l.46-2.52h.44Z"/><path class="cls-1" d="M16.71,84.68h-.44L15.86,82l-.41,2.73H15l-.69-3.22h.44L15.23,84l.35-2.52h.56L16.49,84,17,81.46h.44Z"/><path class="cls-1" d="M19.11,84.57v-.89h.71v.89Z"/><path class="cls-1" d="M24.12,84.05a1.22,1.22,0,0,1-.24.4,1,1,0,0,1-.35.25,1,1,0,0,1-.44.09,1,1,0,0,1-.87-.45,2.22,2.22,0,0,1-.31-1.26,3.2,3.2,0,0,1,.08-.73,1.86,1.86,0,0,1,.24-.55,1,1,0,0,1,.38-.33,1,1,0,0,1,.49-.12,1.29,1.29,0,0,1,.45.08,1,1,0,0,1,.34.24,1.1,1.1,0,0,1,.23.37,1.85,1.85,0,0,1,.09.49h-.45a.82.82,0,0,0-.18-.53.6.6,0,0,0-.48-.19.6.6,0,0,0-.53.32,1.78,1.78,0,0,0-.2.93,1.92,1.92,0,0,0,.19.94.59.59,0,0,0,.54.32.57.57,0,0,0,.46-.21,1,1,0,0,0,.22-.58h.44A2,2,0,0,1,24.12,84.05Z"/><path class="cls-1" d="M27.71,84.05a1.05,1.05,0,0,1-.23.4,1,1,0,0,1-.35.25,1,1,0,0,1-.44.09,1,1,0,0,1-.87-.45,2.22,2.22,0,0,1-.31-1.26,2.72,2.72,0,0,1,.08-.73,1.86,1.86,0,0,1,.24-.55,1,1,0,0,1,.38-.33,1,1,0,0,1,.49-.12,1.29,1.29,0,0,1,.45.08,1,1,0,0,1,.34.24,1.28,1.28,0,0,1,.23.37,1.85,1.85,0,0,1,.09.49h-.45a.82.82,0,0,0-.18-.53.6.6,0,0,0-.48-.19.6.6,0,0,0-.53.32,1.78,1.78,0,0,0-.2.93,1.92,1.92,0,0,0,.19.94.59.59,0,0,0,.54.32.57.57,0,0,0,.46-.21,1,1,0,0,0,.22-.58h.44A1.65,1.65,0,0,1,27.71,84.05Z"/><path class="cls-1" d="M31.35,83.83a1.63,1.63,0,0,1-.23.55,1,1,0,0,1-.34.34.82.82,0,0,1-.44.11.72.72,0,0,1-.45-.15,1.14,1.14,0,0,1-.34-.45v.49H29.1v-4.3h.45V82a.88.88,0,0,1,.79-.61.83.83,0,0,1,.44.12,1,1,0,0,1,.34.34,1.52,1.52,0,0,1,.23.53,3.26,3.26,0,0,1,.08.73A3.11,3.11,0,0,1,31.35,83.83Zm-.58-1.65a.56.56,0,0,0-.5-.31.59.59,0,0,0-.53.31,1.91,1.91,0,0,0-.18.93,2,2,0,0,0,.18.94.59.59,0,0,0,.53.31.57.57,0,0,0,.5-.32,1.79,1.79,0,0,0,.19-.93A1.82,1.82,0,0,0,30.77,82.18Z"/><path class="cls-1" d="M33.24,83.31v-.48h1.25v.48Z"/><path class="cls-1" d="M38.42,84.74c-.28,0-.42-.16-.42-.47h0a1.16,1.16,0,0,1-.92.51.76.76,0,0,1-.61-.25,1,1,0,0,1-.21-.69,1.42,1.42,0,0,1,.06-.44.75.75,0,0,1,.18-.3.69.69,0,0,1,.32-.19,2.17,2.17,0,0,1,.44-.11l.39-.05a.53.53,0,0,0,.21-.06.15.15,0,0,0,.08-.12,1.47,1.47,0,0,0,0-.25c0-.33-.19-.49-.58-.49s-.6.19-.6.58h-.41v0a.93.93,0,0,1,1-1,1.06,1.06,0,0,1,.77.24,1,1,0,0,1,.24.73V84a.7.7,0,0,0,0,.24s.06.08.14.08l.11,0v.41A.85.85,0,0,1,38.42,84.74Zm-.48-1.69a1,1,0,0,1-.37.13l-.42.08a.6.6,0,0,0-.33.16.53.53,0,0,0-.11.36c0,.36.15.53.45.53a1.06,1.06,0,0,0,.31,0,.82.82,0,0,0,.25-.16.6.6,0,0,0,.16-.24.75.75,0,0,0,.06-.31Z"/><path class="cls-1" d="M40.71,84.57v-.89h.71v.89Z"/><path class="cls-1" d="M45.72,84.05a1.22,1.22,0,0,1-.24.4.94.94,0,0,1-.34.25,1.13,1.13,0,0,1-.45.09,1,1,0,0,1-.87-.45,2.22,2.22,0,0,1-.31-1.26,3.2,3.2,0,0,1,.08-.73,1.86,1.86,0,0,1,.24-.55,1.08,1.08,0,0,1,.38-.33,1,1,0,0,1,.5-.12,1.23,1.23,0,0,1,.44.08,1.09,1.09,0,0,1,.35.24,1.25,1.25,0,0,1,.22.37,1.53,1.53,0,0,1,.1.49h-.46a.82.82,0,0,0-.18-.53.58.58,0,0,0-.47-.19.61.61,0,0,0-.54.32,1.79,1.79,0,0,0-.19.93,1.93,1.93,0,0,0,.18.94.6.6,0,0,0,.55.32.57.57,0,0,0,.45-.21,1,1,0,0,0,.23-.58h.43A1.66,1.66,0,0,1,45.72,84.05Z"/><path class="cls-1" d="M49.15,84.34a1,1,0,0,1-.89.45,1.18,1.18,0,0,1-.5-.11,1.11,1.11,0,0,1-.38-.34,1.69,1.69,0,0,1-.24-.54,3.2,3.2,0,0,1-.08-.73,2.21,2.21,0,0,1,.32-1.27,1,1,0,0,1,.88-.45,1,1,0,0,1,.89.45,2.68,2.68,0,0,1,0,2.54Zm-.34-2.21a.61.61,0,0,0-.55-.31.59.59,0,0,0-.54.31,2.4,2.4,0,0,0,0,1.87.62.62,0,0,0,1.09,0,2.4,2.4,0,0,0,0-1.87Z"/><path class="cls-1" d="M52.7,84.68V82.43a1.9,1.9,0,0,0-.05-.48.2.2,0,0,0-.21-.17.31.31,0,0,0-.27.2,1.16,1.16,0,0,0-.11.55v2.15h-.4V82.43a1.52,1.52,0,0,0,0-.48.2.2,0,0,0-.21-.17.32.32,0,0,0-.27.19,1.22,1.22,0,0,0-.1.56v2.15h-.42V81.47H51v.34a.76.76,0,0,1,.21-.34.4.4,0,0,1,.29-.12.47.47,0,0,1,.32.12.78.78,0,0,1,.19.35,1.07,1.07,0,0,1,.24-.35.47.47,0,0,1,.32-.12.46.46,0,0,1,.27.08.47.47,0,0,1,.16.22,1.06,1.06,0,0,1,.08.35,3.13,3.13,0,0,1,0,.46v2.22Z"/></g></g></svg>