<svg xmlns="http://www.w3.org/2000/svg" viewBox="0 0 133.53 91.25"><defs><style>.cls-1{fill:none;stroke:#fff;stroke-miterlimit:10;stroke-width:.75px}.cls-2{fill:#fff}</style></defs><title>Logo_Centered</title><g id="Layer_2" data-name="Layer 2"><g id="LANDING_PAGE" data-name="LANDING PAGE"><rect class="cls-1" x=".38" y=".38" width="132.78" height="90.5" rx="13.12" ry="13.12"/><path class="cls-2" d="M49.88 45.72a2.2 2.2 0 0 1 .07-.6 1.75 1.75 0 0 1 .21-.48 2.25 2.25 0 0 1 .36-.4 4.33 4.33 0 0 1 .5-.37l.31-.18a1.36 1.36 0 0 0 .4-.39 1 1 0 0 0 .12-.51.75.75 0 0 0-.19-.53.67.67 0 0 0-.52-.21.64.64 0 0 0-.52.25 1.16 1.16 0 0 0-.19.72H50V43a1.78 1.78 0 0 1 .09-.59 1.08 1.08 0 0 1 .24-.45 1 1 0 0 1 .38-.28 1.1 1.1 0 0 1 .49-.1 1.3 1.3 0 0 1 .49.09 1.05 1.05 0 0 1 .37.25 1.28 1.28 0 0 1 .24.39 1.4 1.4 0 0 1 .08.51 1.54 1.54 0 0 1-.18.75 1.77 1.77 0 0 1-.59.56l-.31.18-.32.2a2.76 2.76 0 0 0-.25.21 1.88 1.88 0 0 0-.18.24 1 1 0 0 0-.11.28h1.94v.52zm5.76-.42a1 1 0 0 1-.93.53 1 1 0 0 1-.92-.53 3.16 3.16 0 0 1-.32-1.61 3.2 3.2 0 0 1 .32-1.62 1.06 1.06 0 0 1 1.85 0 4.36 4.36 0 0 1 0 3.23zm-.35-2.86a.61.61 0 0 0-1.15 0 3.23 3.23 0 0 0-.14 1.25 3.27 3.27 0 0 0 .18 1.25.61.61 0 0 0 1.15 0 3.52 3.52 0 0 0 .17-1.25 3.48 3.48 0 0 0-.21-1.25zm2.94 3.28v-2.95h-.84v-.43a1.15 1.15 0 0 0 .68-.19.9.9 0 0 0 .28-.61h.35v4.18zm4.35-.67a1.32 1.32 0 0 1-.24.42 1.05 1.05 0 0 1-.39.27 1.47 1.47 0 0 1-.53.09 1.42 1.42 0 0 1-.52-.09.94.94 0 0 1-.38-.27 1.17 1.17 0 0 1-.25-.42 1.74 1.74 0 0 1-.08-.53 1 1 0 0 1 .6-1 .91.91 0 0 1-.48-.88 1.16 1.16 0 0 1 .08-.42 1 1 0 0 1 .22-.34 1.07 1.07 0 0 1 .35-.23 1.34 1.34 0 0 1 .46-.08 1.4 1.4 0 0 1 .47.08 1.18 1.18 0 0 1 .35.23 1 1 0 0 1 .22.34 1.16 1.16 0 0 1 .08.42.92.92 0 0 1-.47.88 1 1 0 0 1 .59 1 1.48 1.48 0 0 1-.08.53zM62 44a.7.7 0 0 0-.55-.2.69.69 0 0 0-.53.2.78.78 0 0 0-.2.56.89.89 0 0 0 .2.6.67.67 0 0 0 .53.22.68.68 0 0 0 .55-.22.88.88 0 0 0 .19-.6A.78.78 0 0 0 62 44zm-.09-1.77a.62.62 0 0 0-.46-.17.61.61 0 0 0-.45.17.64.64 0 0 0-.17.47.69.69 0 0 0 .17.48.58.58 0 0 0 .45.18.59.59 0 0 0 .46-.18.69.69 0 0 0 .17-.48.64.64 0 0 0-.2-.52zm2.67 4.02h-.36l1.25-4.81h.36zm4.97-.95a1 1 0 0 1-.92.53 1 1 0 0 1-.93-.53 3.27 3.27 0 0 1-.32-1.61 3.31 3.31 0 0 1 .32-1.62 1.06 1.06 0 0 1 1.85 0 4.24 4.24 0 0 1 0 3.23zm-.35-2.86a.57.57 0 0 0-.57-.41.59.59 0 0 0-.58.41 3.48 3.48 0 0 0-.17 1.25 3.52 3.52 0 0 0 .17 1.25.6.6 0 0 0 .58.4.57.57 0 0 0 .57-.4 3.3 3.3 0 0 0 .17-1.25 3.27 3.27 0 0 0-.17-1.25zm3.28 1.36a6.94 6.94 0 0 0-.48 1.91h-.52a7 7 0 0 1 .52-1.87 7.21 7.21 0 0 1 1-1.64h-2v-.55h2.47v.5a6.6 6.6 0 0 0-.99 1.65zm2.72.51v-.48h1.25v.48zm5.15.99a1 1 0 0 1-.92.53 1 1 0 0 1-.93-.53 3.27 3.27 0 0 1-.32-1.61 3.31 3.31 0 0 1 .32-1.62 1.06 1.06 0 0 1 1.85 0 4.24 4.24 0 0 1 0 3.23zM80 42.44a.57.57 0 0 0-.57-.41.59.59 0 0 0-.58.41 3.48 3.48 0 0 0-.17 1.25 3.52 3.52 0 0 0 .17 1.25.6.6 0 0 0 .58.4.57.57 0 0 0 .57-.4 3.3 3.3 0 0 0 .17-1.25 3.27 3.27 0 0 0-.17-1.25zM84.2 45a1.26 1.26 0 0 1-.25.44 1 1 0 0 1-.38.29 1.18 1.18 0 0 1-.5.1 1.11 1.11 0 0 1-1-.49 2.69 2.69 0 0 1-.33-1.47 3.42 3.42 0 0 1 .36-1.74 1.11 1.11 0 0 1 1-.6 1.06 1.06 0 0 1 .81.3 1.24 1.24 0 0 1 .33.85h-.48a.76.76 0 0 0-.19-.49.58.58 0 0 0-.46-.17c-.52 0-.8.5-.85 1.5a1 1 0 0 1 .86-.45 1.18 1.18 0 0 1 .46.09 1.22 1.22 0 0 1 .36.27 1.43 1.43 0 0 1 .24.44 2 2 0 0 1 .08.57 1.94 1.94 0 0 1-.06.56zm-.61-1.21a.62.62 0 0 0-.51-.23.68.68 0 0 0-.55.24.94.94 0 0 0-.2.65 1.07 1.07 0 0 0 .19.67.67.67 0 0 0 .54.24.61.61 0 0 0 .52-.25 1 1 0 0 0 .2-.66 1 1 0 0 0-.19-.66zm-58.34 8.13a1.08 1.08 0 0 1-.84.33h-1.35v-4.16h1.28a1.08 1.08 0 0 1 .78.26 1.06 1.06 0 0 1 .27.78 1 1 0 0 1-.13.52.93.93 0 0 1-.36.35.82.82 0 0 1 .48.35 1.18 1.18 0 0 1 .16.65 1.32 1.32 0 0 1-.29.92zm-.49-3.19a.74.74 0 0 0-.48-.14h-.74v1.25h.7a.65.65 0 0 0 .5-.17.61.61 0 0 0 .17-.48.61.61 0 0 0-.15-.46zm.1 1.75a.81.81 0 0 0-.56-.16h-.76v1.42h.81c.47 0 .7-.24.7-.73a.66.66 0 0 0-.19-.53zm4.27.62a2.42 2.42 0 0 1-.26.69 1.4 1.4 0 0 1-.42.42 1.06 1.06 0 0 1-.55.15 1 1 0 0 1-.55-.15 1.4 1.4 0 0 1-.42-.42 2.42 2.42 0 0 1-.26-.69 3.73 3.73 0 0 1-.1-.93 4.41 4.41 0 0 1 .09-.94 2.42 2.42 0 0 1 .27-.69 1.4 1.4 0 0 1 .42-.42 1 1 0 0 1 .55-.12 1.15 1.15 0 0 1 .55.14 1.33 1.33 0 0 1 .42.43 2.42 2.42 0 0 1 .26.69 4.37 4.37 0 0 1 0 1.86zm-.63-2.19a.63.63 0 0 0-1.2 0 2.8 2.8 0 0 0-.23 1.26 2.73 2.73 0 0 0 .23 1.25.63.63 0 0 0 1.2 0 2.75 2.75 0 0 0 .23-1.25 2.8 2.8 0 0 0-.23-1.26zm4.08 3.34L32.21 51h-1.43l-.38 1.23h-.47l1.31-4.16h.52l1.31 4.16zm-1.08-3.57l-.56 1.89h1.11zm4.37 3.57l-1.21-2-.42.53v1.48h-.48v-4.17h.48v2l1.59-2h.57L35 49.84l1.45 2.41zM39 50.56v1.69h-.48V50.6l-1.22-2.51h.57l.89 2 .89-2h.53zm2.18 1.69v-4.16h2.23v.51h-1.76v1.24h1.6v.47h-1.6v1.43h1.8v.51zm4.11-1.42v-.47h1.24v.47zm5.3 1.42L50.22 51h-1.43l-.38 1.23h-.48l1.31-4.16h.53l1.31 4.16zm-1.09-3.57l-.5 1.89h1.11zm4.68 3.57l-.09-.56a1.11 1.11 0 0 1-1 .67 1 1 0 0 1-.51-.15 1.26 1.26 0 0 1-.43-.43 2.43 2.43 0 0 1-.28-.69 4.28 4.28 0 0 1 0-1.84 2.43 2.43 0 0 1 .28-.69 1.41 1.41 0 0 1 .45-.43 1.14 1.14 0 0 1 .58-.15 1 1 0 0 1 .81.36 1.69 1.69 0 0 1 .39 1h-.51a1.43 1.43 0 0 0-.24-.66.59.59 0 0 0-.48-.22.7.7 0 0 0-.65.43 3.43 3.43 0 0 0 0 2.52.72.72 0 0 0 .63.43.56.56 0 0 0 .31-.09.92.92 0 0 0 .26-.26 1.6 1.6 0 0 0 .16-.42 2.38 2.38 0 0 0 .06-.55h-.8V50h1.3v2.25zM57 50.56v1.69h-.48V50.6l-1.23-2.51h.57l.9 2 .88-2h.54zm2.17 1.69v-4.16h2.23v.51h-1.75v1.24h1.6v.47h-1.6v1.43h1.8v.51zm5.63 0v-3.77l-.67 3.77h-.44L63 48.48v3.77h-.39v-4.16h.63l.65 3.67.67-3.67h.63v4.16zm3.79 0L68.22 51h-1.44l-.37 1.23h-.48l1.31-4.16h.52l1.32 4.16zm-1.09-3.57l-.5 1.89h1.11zm4.17 3.57l-1.31-3.35v3.35h-.43v-4.16h.61l1.31 3.4v-3.4h.43v4.16zm3.24.69a.82.82 0 0 1-.63.31v-.41a.49.49 0 0 0 .37-.19.93.93 0 0 0 .11-.5V52h-.35v-.9h.71v1a1.43 1.43 0 0 1-.21.84zM83 51.4a1.7 1.7 0 0 1-.27.52 1.11 1.11 0 0 1-.39.33 1.13 1.13 0 0 1-.48.11 1 1 0 0 1-.55-.15 1.3 1.3 0 0 1-.42-.42 2.42 2.42 0 0 1-.26-.69 3.73 3.73 0 0 1-.1-.93 3.82 3.82 0 0 1 .1-.94 2.42 2.42 0 0 1 .26-.69 1.3 1.3 0 0 1 .42-.42 1 1 0 0 1 .55-.14 1.08 1.08 0 0 1 .44.09 1.07 1.07 0 0 1 .37.27 1.43 1.43 0 0 1 .27.43 2.38 2.38 0 0 1 .15.57h-.49a1.36 1.36 0 0 0-.28-.64.6.6 0 0 0-.46-.22.67.67 0 0 0-.6.43 2.66 2.66 0 0 0-.26 1.26 2.59 2.59 0 0 0 .24 1.25.67.67 0 0 0 .6.43.63.63 0 0 0 .52-.29 1.78 1.78 0 0 0 .27-.86h.49a2.35 2.35 0 0 1-.12.7zm3 .85v-2a1.72 1.72 0 0 0-.1-.63.41.41 0 0 0-.41-.21.64.64 0 0 0-.54.25 1.24 1.24 0 0 0-.2.75v1.85h-.45V48h.45v1.5a1 1 0 0 1 .33-.42.71.71 0 0 1 .48-.16.9.9 0 0 1 .48.12.72.72 0 0 1 .3.32.83.83 0 0 1 .1.35v2.54zM89.82 50a.79.79 0 0 0-.14-.49.47.47 0 0 0-.4-.17.59.59 0 0 0-.53.26 1.32 1.32 0 0 0-.19.78v1.84h-.45V49h.45v.54a1.3 1.3 0 0 1 .34-.54.71.71 0 0 1 .47-.16q.88 0 .9 1.11zm.85 2.25v-.42h.93v-2.68h.45v2.68H93v.42zm.92-3.7V48h.48v.59zM96.26 52a1.18 1.18 0 0 1-.85.29 1.06 1.06 0 0 1-.8-.29 1.17 1.17 0 0 1-.28-.83h.44a.62.62 0 0 0 .68.65.69.69 0 0 0 .48-.15.49.49 0 0 0 .16-.38.92.92 0 0 0 0-.19.27.27 0 0 0-.09-.1.41.41 0 0 0-.13-.08l-.18-.06-.51-.15a1.51 1.51 0 0 1-.34-.13.81.81 0 0 1-.24-.17.82.82 0 0 1-.14-.26 1.18 1.18 0 0 1 0-.35.87.87 0 0 1 .07-.37.77.77 0 0 1 .19-.3 1.16 1.16 0 0 1 .32-.2 1.5 1.5 0 0 1 .44-.07 1.45 1.45 0 0 1 .44.07.91.91 0 0 1 .33.2.63.63 0 0 1 .21.3 1 1 0 0 1 .08.39H96a.5.5 0 0 0-.17-.38.66.66 0 0 0-.44-.13.74.74 0 0 0-.43.11.45.45 0 0 0-.14.35.35.35 0 0 0 .11.28 1.3 1.3 0 0 0 .33.14l.44.12.35.12a.69.69 0 0 1 .26.17.54.54 0 0 1 .16.26 1.19 1.19 0 0 1-.21 1.14zm3.38.35a1.59 1.59 0 0 1-.49-.07.59.59 0 0 1-.29-.21.82.82 0 0 1-.14-.37 2.62 2.62 0 0 1 0-.52v-1.63h-.79v-.42h.79v-.78l.45-.16v.94h1v.42h-1v1.55a3.49 3.49 0 0 0 0 .35.61.61 0 0 0 .08.25.35.35 0 0 0 .2.15 1 1 0 0 0 .35 0 2.13 2.13 0 0 0 .39 0v.46zm1.83-.1v-.42h.93v-2.68h.45v2.68h.94v.42zm.92-3.7V48h.48v.59zm4.8 3.71c-.28 0-.42-.15-.42-.46a1.14 1.14 0 0 1-.92.52.76.76 0 0 1-.61-.25 1.05 1.05 0 0 1-.21-.69 1.37 1.37 0 0 1 .06-.44.73.73 0 0 1 .18-.31.91.91 0 0 1 .32-.19 3.13 3.13 0 0 1 .44-.11h.39a.76.76 0 0 0 .21-.06.2.2 0 0 0 .08-.13 1.38 1.38 0 0 0 0-.25c0-.33-.19-.49-.58-.49a.52.52 0 0 0-.6.58h-.41a.95.95 0 0 1 1-1 1.06 1.06 0 0 1 .77.24 1 1 0 0 1 .24.74v1.66a.67.67 0 0 0 0 .23c0 .06.06.09.14.09h.11v.41a.63.63 0 0 1-.19-.09zm-.48-1.69a1 1 0 0 1-.37.14l-.42.07a.58.58 0 0 0-.33.17.53.53 0 0 0-.11.36c0 .35.15.53.45.53a.81.81 0 0 0 .31-.06.79.79 0 0 0 .25-.15.77.77 0 0 0 .22-.55zm3.75 1.64v-2a1.69 1.69 0 0 0-.1-.63.4.4 0 0 0-.41-.22.65.65 0 0 0-.54.26 1.21 1.21 0 0 0-.2.74v1.86h-.45V49h.43v.49a.88.88 0 0 1 .83-.6 1 1 0 0 1 .48.11.84.84 0 0 1 .3.32.88.88 0 0 1 .1.36v2.54zm-57 4.56A.76.76 0 0 1 53 57a4.11 4.11 0 0 1-.53 0H52v1.76h-.5v-4.14h1.24a1 1 0 0 1 .81.3 1.25 1.25 0 0 1 .28.89 1.21 1.21 0 0 1-.37.96zm-.18-1.29a.38.38 0 0 0-.13-.21.51.51 0 0 0-.22-.11 1.58 1.58 0 0 0-.32 0H52v1.41h.61a1.47 1.47 0 0 0 .32 0 .46.46 0 0 0 .24-.12.44.44 0 0 0 .14-.22 1.13 1.13 0 0 0 0-.35 1 1 0 0 0-.03-.4zm3.87 2.91a1 1 0 0 1-.89.45 1.18 1.18 0 0 1-.5-.11 1.08 1.08 0 0 1-.37-.34 1.41 1.41 0 0 1-.24-.54 2.7 2.7 0 0 1-.09-.73 2.21 2.21 0 0 1 .32-1.27 1.1 1.1 0 0 1 1.77 0 2.68 2.68 0 0 1 0 2.54zm-.34-2.21a.63.63 0 0 0-1.09 0 1.81 1.81 0 0 0-.19.94 1.9 1.9 0 0 0 .19.93.62.62 0 0 0 1.09 0 2.4 2.4 0 0 0 0-1.87zm3.86.34a.82.82 0 0 0-.14-.5.5.5 0 0 0-.4-.17.6.6 0 0 0-.53.27 1.27 1.27 0 0 0-.19.77v1.84H59v-3.21h.45v.53a1.18 1.18 0 0 1 .34-.48.71.71 0 0 1 .47-.17c.59 0 .89.38.9 1.12zm3.41 2.35a1.3 1.3 0 0 1-.49-.07.55.55 0 0 1-.3-.21.85.85 0 0 1-.13-.36 2.68 2.68 0 0 1 0-.52v-1.64h-.79v-.42h.79v-.77l.45-.17v.94h1v.42h-1v1.55a3.32 3.32 0 0 0 0 .35.57.57 0 0 0 .08.25.35.35 0 0 0 .2.15.84.84 0 0 0 .35.05h.39v.45zm3.11-2.45v2.36h-.45v-2.36h-.83V56h.83v-.62a.87.87 0 0 1 .24-.69 1.17 1.17 0 0 1 .76-.21h.49V55h-.39a.75.75 0 0 0-.49.13.5.5 0 0 0-.16.41V56h1v.42zm4.36 1.97a1 1 0 0 1-.89.45 1.18 1.18 0 0 1-.5-.11 1.11 1.11 0 0 1-.38-.34 1.8 1.8 0 0 1-.24-.54 3.2 3.2 0 0 1-.08-.73 2.21 2.21 0 0 1 .32-1.27 1 1 0 0 1 .88-.45 1 1 0 0 1 .89.45 2.68 2.68 0 0 1 0 2.54zm-.34-2.21a.61.61 0 0 0-.55-.31.59.59 0 0 0-.54.31 2.4 2.4 0 0 0 0 1.87.62.62 0 0 0 1.09 0 2.4 2.4 0 0 0 0-1.87zm1.89 2.6v-.42h.9V54.9h-.71v-.42h1.21v3.88h.93v.42zm3.61 0v-.42h.93v-2.69h.46v2.69h.9v.42zm.92-3.7v-.6h.48v.6zm4.73 3.31a1 1 0 0 1-.89.45 1.18 1.18 0 0 1-.5-.11 1.11 1.11 0 0 1-.38-.34 1.8 1.8 0 0 1-.24-.54 3.2 3.2 0 0 1-.08-.73 2.21 2.21 0 0 1 .32-1.27 1 1 0 0 1 .88-.45 1 1 0 0 1 .89.45 2.68 2.68 0 0 1 0 2.54zM82 56.18a.61.61 0 0 0-.55-.31.59.59 0 0 0-.54.31 2.4 2.4 0 0 0 0 1.87.62.62 0 0 0 1.09 0 2.4 2.4 0 0 0 0-1.87zm-32.52 9.11H49l-1.16-4.15h.49l.93 3.53.9-3.53h.49zm2.2 0v-4.15h2.23v.51h-1.76v1.24h1.61v.47h-1.61v1.43H54v.5zm5.39 0a1.65 1.65 0 0 1-.09-.56v-.54a1.55 1.55 0 0 0-.05-.36.43.43 0 0 0-.12-.21.61.61 0 0 0-.23-.09h-.88v1.78h-.49v-4.17h1.21a1 1 0 0 1 .81.31 1.27 1.27 0 0 1 .27.88 1 1 0 0 1-.47.94.5.5 0 0 1 .19.11.33.33 0 0 1 .11.15.71.71 0 0 1 .06.22v.95a1.82 1.82 0 0 0 0 .31.28.28 0 0 0 .11.17v.11zM57 62a.46.46 0 0 0-.14-.21.52.52 0 0 0-.22-.12 1.51 1.51 0 0 0-.32 0h-.62v1.42h.55a.85.85 0 0 0 .56-.16.69.69 0 0 0 .19-.57 1 1 0 0 0 0-.36zm4.21 2.63a1.17 1.17 0 0 1-.25.42 1.2 1.2 0 0 1-.4.26 1.33 1.33 0 0 1-.54.1 1.18 1.18 0 0 1-.93-.38 1.79 1.79 0 0 1-.36-1.11h.47a1 1 0 0 0 .23.73.89.89 0 0 0 1.18 0 .71.71 0 0 0 .22-.55.72.72 0 0 0-.07-.32.57.57 0 0 0-.19-.19 3.24 3.24 0 0 0-.31-.13l-.43-.13a4.09 4.09 0 0 1-.42-.16 1.13 1.13 0 0 1-.31-.17.93.93 0 0 1-.2-.3 1.33 1.33 0 0 1-.06-.44 1.37 1.37 0 0 1 .08-.51 1.09 1.09 0 0 1 .23-.39 1.16 1.16 0 0 1 .36-.25A1.19 1.19 0 0 1 60 61a1.16 1.16 0 0 1 .9.35 1.42 1.42 0 0 1 .32 1h-.47a1 1 0 0 0-.22-.64.66.66 0 0 0-.52-.21.67.67 0 0 0-.49.18.64.64 0 0 0-.18.47.78.78 0 0 0 0 .3.4.4 0 0 0 .15.19.7.7 0 0 0 .26.13l.41.12.47.15a1.21 1.21 0 0 1 .35.21.81.81 0 0 1 .21.32 1.36 1.36 0 0 1 .08.49 1.53 1.53 0 0 1-.06.57zm1.5.66v-.47h.67v-3.2h-.67v-.48h1.8v.48h-.66v3.2h.66v.47zm5.53-1.14a2.16 2.16 0 0 1-.27.69 1.21 1.21 0 0 1-.42.42 1 1 0 0 1-.55.15 1.06 1.06 0 0 1-.55-.15 1.27 1.27 0 0 1-.41-.42 2.16 2.16 0 0 1-.27-.69 4.31 4.31 0 0 1-.09-.93 4.41 4.41 0 0 1 .09-.94 2.42 2.42 0 0 1 .26-.69 1.4 1.4 0 0 1 .42-.42A1 1 0 0 1 67 61a1.1 1.1 0 0 1 .55.14 1.16 1.16 0 0 1 .42.43 2.16 2.16 0 0 1 .27.69 4.37 4.37 0 0 1 0 1.86zM67.61 62a.69.69 0 0 0-.61-.43.67.67 0 0 0-.59.43 2.67 2.67 0 0 0-.23 1.26 2.6 2.6 0 0 0 .23 1.25.67.67 0 0 0 .59.43.69.69 0 0 0 .61-.43 2.77 2.77 0 0 0 .22-1.25 2.82 2.82 0 0 0-.22-1.26zm3.56 3.29L69.86 62v3.34h-.43v-4.2H70l1.31 3.4v-3.4h.43v4.15zm7.48-.42a1.06 1.06 0 0 1-1.85 0 4.21 4.21 0 0 1 0-3.22 1.06 1.06 0 0 1 1.85 0 4.34 4.34 0 0 1 0 3.22zM78.3 62a.58.58 0 0 0-.57-.41.6.6 0 0 0-.58.41 4.68 4.68 0 0 0 0 2.5.6.6 0 0 0 .58.41.58.58 0 0 0 .57-.41 4.68 4.68 0 0 0 0-2.5zm3.95 2.87a1.06 1.06 0 0 1-1.85 0 4.21 4.21 0 0 1 0-3.22 1.06 1.06 0 0 1 1.85 0 4.34 4.34 0 0 1 0 3.22zM81.9 62a.59.59 0 0 0-.58-.41.6.6 0 0 0-.57.41 4.43 4.43 0 0 0 0 2.5.6.6 0 0 0 .57.41.59.59 0 0 0 .58-.41 4.68 4.68 0 0 0 0-2.5zm1.79 3.29a2.27 2.27 0 0 1 .07-.61 2.06 2.06 0 0 1 .21-.48 2.66 2.66 0 0 1 .36-.4 4.33 4.33 0 0 1 .5-.36l.31-.19a1.36 1.36 0 0 0 .4-.39 1 1 0 0 0 .12-.5.76.76 0 0 0-.19-.54.7.7 0 0 0-.52-.2.61.61 0 0 0-.52.25 1.13 1.13 0 0 0-.19.71h-.47v-.08a1.89 1.89 0 0 1 .09-.6 1.11 1.11 0 0 1 .62-.73 1.26 1.26 0 0 1 .49-.1 1.21 1.21 0 0 1 .48.09 1 1 0 0 1 .38.26 1.17 1.17 0 0 1 .24.39 1.35 1.35 0 0 1 .08.5 1.49 1.49 0 0 1-.18.75 1.68 1.68 0 0 1-.59.56l-.31.18-.32.21a1.27 1.27 0 0 0-.25.21 1.08 1.08 0 0 0-.18.24.86.86 0 0 0-.11.28h1.94v.51zM66.44 71a2.12 2.12 0 0 1-.28.52 1.08 1.08 0 0 1-.39.32 1 1 0 0 1-.48.11 1.1 1.1 0 0 1-.55-.14 1.24 1.24 0 0 1-.42-.43 2.42 2.42 0 0 1-.26-.69 4.37 4.37 0 0 1 0-1.86 2.42 2.42 0 0 1 .26-.69 1.13 1.13 0 0 1 .42-.42 1 1 0 0 1 .55-.15 1 1 0 0 1 .44.09 1.41 1.41 0 0 1 .37.27 1.43 1.43 0 0 1 .27.43 2.34 2.34 0 0 1 .15.58H66a1.4 1.4 0 0 0-.28-.65.61.61 0 0 0-.46-.22.69.69 0 0 0-.6.43 3.57 3.57 0 0 0 0 2.52.68.68 0 0 0 .6.43.65.65 0 0 0 .52-.29 1.82 1.82 0 0 0 .27-.86h.5a3.47 3.47 0 0 1-.11.7zm3.56.82l-.37-1.22h-1.48l-.38 1.22h-.48l1.31-4.16h.53l1.31 4.16zm-1.08-3.56l-.56 1.89h1.11zM46.31 84.83h-.44l-.41-2.73-.46 2.73h-.43l-.68-3.22h.43l.47 2.51.35-2.51h.55l.36 2.51.46-2.51H47zm3.6 0h-.44l-.41-2.73-.42 2.73h-.43l-.68-3.22H48l.47 2.51.35-2.51h.55l.36 2.51.46-2.51h.44zm3.59 0h-.43l-.41-2.73-.42 2.73h-.43l-.68-3.22h.43l.44 2.51.35-2.51h.55l.36 2.51.46-2.51h.44zm2.4-.11v-.89h.72v.89zm5.01-.52a1.4 1.4 0 0 1-.23.4 1.07 1.07 0 0 1-.35.25 1.1 1.1 0 0 1-.45.09 1 1 0 0 1-.87-.45 2.3 2.3 0 0 1-.31-1.26 2.7 2.7 0 0 1 .09-.73A1.46 1.46 0 0 1 59 82a1 1 0 0 1 .87-.45 1.33 1.33 0 0 1 .45.08 1.16 1.16 0 0 1 .34.24 1.28 1.28 0 0 1 .23.37 1.85 1.85 0 0 1 .09.49h-.45a.82.82 0 0 0-.19-.53.58.58 0 0 0-.44-.2.61.61 0 0 0-.54.32 1.9 1.9 0 0 0-.19.93 1.81 1.81 0 0 0 .19.94.61.61 0 0 0 1 .11 1.06 1.06 0 0 0 .22-.58H61a1.72 1.72 0 0 1-.09.48zm3.6 0a1.4 1.4 0 0 1-.23.4 1.07 1.07 0 0 1-.35.25 1.1 1.1 0 0 1-.45.09 1 1 0 0 1-.87-.45 2.3 2.3 0 0 1-.31-1.26 2.7 2.7 0 0 1 .09-.73 1.46 1.46 0 0 1 .24-.55 1 1 0 0 1 .87-.45 1.33 1.33 0 0 1 .45.08 1.16 1.16 0 0 1 .34.24 1.28 1.28 0 0 1 .23.37 1.85 1.85 0 0 1 .09.49h-.45a.82.82 0 0 0-.19-.53.58.58 0 0 0-.47-.15.61.61 0 0 0-.54.32 1.79 1.79 0 0 0-.19.93 1.93 1.93 0 0 0 .18.94.61.61 0 0 0 .55.32.59.59 0 0 0 .46-.21 1.06 1.06 0 0 0 .22-.58h.43a1.72 1.72 0 0 1-.1.48zm3.63-.2a1.62 1.62 0 0 1-.22.55 1.1 1.1 0 0 1-.34.34.93.93 0 0 1-.44.11.75.75 0 0 1-.46-.15 1.23 1.23 0 0 1-.33-.45v.49h-.45v-4.3h.45v1.58a.87.87 0 0 1 .79-.61.83.83 0 0 1 .44.12 1.1 1.1 0 0 1 .34.34 1.51 1.51 0 0 1 .22.53 2.77 2.77 0 0 1 .08.73 2.64 2.64 0 0 1-.08.72zm-.57-1.65a.58.58 0 0 0-1 0 1.79 1.79 0 0 0-.19.93 1.84 1.84 0 0 0 .19.94.57.57 0 0 0 .53.31.59.59 0 0 0 .5-.32 2.37 2.37 0 0 0 0-1.86zm4.05 2.54c-.29 0-.43-.16-.43-.47a1.14 1.14 0 0 1-.91.51.75.75 0 0 1-.61-.25 1 1 0 0 1-.22-.69 1.42 1.42 0 0 1 .06-.44.67.67 0 0 1 .19-.3.71.71 0 0 1 .31-.19 1.85 1.85 0 0 1 .45-.11h.38a.44.44 0 0 0 .21-.06.16.16 0 0 0 .09-.12 1.7 1.7 0 0 0 0-.25c0-.33-.19-.49-.57-.49s-.61.19-.61.58h-.4a.93.93 0 0 1 1-1 1.06 1.06 0 0 1 .77.24 1 1 0 0 1 .23.73v1.66a.74.74 0 0 0 0 .24.14.14 0 0 0 .14.08h.11v.41a.79.79 0 0 1-.19-.08zm-.48-1.7a.88.88 0 0 1-.38.14l-.42.08a.57.57 0 0 0-.33.16.53.53 0 0 0-.1.36c0 .36.15.53.45.53a.94.94 0 0 0 .3 0 .72.72 0 0 0 .25-.16.61.61 0 0 0 .17-.24.75.75 0 0 0 .06-.31zm2.77 1.53v-.89h.71v.89zm4.8.11h-.44l-.41-2.73-.41 2.73H77l-.69-3.22h.44l.46 2.51.35-2.51h.56l.35 2.51.53-2.51h.44zm3.63-.34a1 1 0 0 1-.88.45 1.15 1.15 0 0 1-.5-.11 1 1 0 0 1-.38-.34 1.92 1.92 0 0 1-.24-.54 2.72 2.72 0 0 1-.08-.73 2.11 2.11 0 0 1 .32-1.22 1 1 0 0 1 .88-.45 1 1 0 0 1 .88.45 2.68 2.68 0 0 1 0 2.54zM82 82.28a.59.59 0 0 0-.54-.31.61.61 0 0 0-.55.31 1.92 1.92 0 0 0-.19.94 1.78 1.78 0 0 0 .2.93.59.59 0 0 0 .54.32.58.58 0 0 0 .54-.32 2.29 2.29 0 0 0 0-1.87zm3.86.34a.75.75 0 0 0-.14-.5.49.49 0 0 0-.4-.17.62.62 0 0 0-.53.27 1.35 1.35 0 0 0-.18.77v1.84h-.46v-3.21h.45v.53a1.41 1.41 0 0 1 .34-.48.72.72 0 0 1 .48-.17c.59 0 .89.38.9 1.12zm2.91.23l1 2h-.51l-.82-1.67-.47.53v1.14h-.46v-4.3H88v2.53l1.25-1.45h.58z"/><path class="cls-1" d="M45.19 16.73a6.25 6.25 0 0 0-6.88-2.43 6.25 6.25 0 0 1 3.4 2.43 4.09 4.09 0 0 0 5.11 1.37 4 4 0 0 1-1.63-1.37z"/><path class="cls-1" d="M25.57 20.3A14.51 14.51 0 0 1 38.31 5.92a14.27 14.27 0 0 0-1.74-.1 14.48 14.48 0 1 0 0 29 14.27 14.27 0 0 0 1.74-.1A14.5 14.5 0 0 1 25.57 20.3zm19.67 3.49a4.06 4.06 0 0 1 1.67-1.42 4.12 4.12 0 0 0-5.15 1.42 6.27 6.27 0 0 1-3.45 2.52 6.29 6.29 0 0 0 6.93-2.52zm1.58-5.69a4.11 4.11 0 0 0 5.11-6.1 14.49 14.49 0 0 0-11.88-6.2 16.6 16.6 0 0 0-1.74.1"/><path class="cls-1" d="M38.31 34.68a14.27 14.27 0 0 0 1.74.1 14.47 14.47 0 0 0 12-6.38 4.12 4.12 0 0 0-5.15-6m17.39-5.67a6.26 6.26 0 0 0-5.13-2.68 6.33 6.33 0 0 0-1.75.25 6.21 6.21 0 0 1 3.4 2.43 4.11 4.11 0 0 0 5.12 1.37 4 4 0 0 1-1.64-1.37z"/><path class="cls-1" d="M44.68 20.3A14.51 14.51 0 0 1 57.42 5.92a14.48 14.48 0 1 0 0 28.76A14.5 14.5 0 0 1 44.68 20.3z"/><path class="cls-1" d="M64.34 23.79A4.09 4.09 0 0 1 66 22.37a4.12 4.12 0 0 0-5.15 1.42 6.3 6.3 0 0 1-3.45 2.52 6.28 6.28 0 0 0 6.92-2.52zm1.59-5.69A4.11 4.11 0 0 0 71 12a14.5 14.5 0 0 0-11.88-6.2 16.6 16.6 0 0 0-1.74.1m.04 28.78a14.27 14.27 0 0 0 1.74.1 14.46 14.46 0 0 0 12-6.38 4.11 4.11 0 0 0-5.14-6m17.38-5.67a6.25 6.25 0 0 0-6.88-2.43 6.25 6.25 0 0 1 3.4 2.43A4.09 4.09 0 0 0 85 18.1a4 4 0 0 1-1.6-1.37z"/><path class="cls-1" d="M63.78 20.3A14.51 14.51 0 0 1 76.52 5.92a14.27 14.27 0 0 0-1.74-.1 14.48 14.48 0 0 0 0 29 14.27 14.27 0 0 0 1.74-.1A14.5 14.5 0 0 1 63.78 20.3zm19.67 3.49a4.06 4.06 0 0 1 1.67-1.42A4.12 4.12 0 0 0 80 23.79a6.27 6.27 0 0 1-3.45 2.52 6.29 6.29 0 0 0 6.93-2.52zM85 18.1a4.11 4.11 0 0 0 5.14-6.1 14.49 14.49 0 0 0-11.88-6.2 16.6 16.6 0 0 0-1.74.1"/><path class="cls-1" d="M76.52 34.68a14.27 14.27 0 0 0 1.74.1 14.47 14.47 0 0 0 12-6.38 4.12 4.12 0 0 0-5.15-6m17.39-5.67a6.26 6.26 0 0 0-5.13-2.68 6.33 6.33 0 0 0-1.75.25A6.21 6.21 0 0 1 99 16.73a4.11 4.11 0 0 0 5.12 1.37 4 4 0 0 1-1.62-1.37z"/><path class="cls-1" d="M82.89 20.3A14.51 14.51 0 0 1 95.63 5.92a14.48 14.48 0 1 0 0 28.76A14.5 14.5 0 0 1 82.89 20.3zm19.67 3.49a4 4 0 0 1 1.67-1.42 4.12 4.12 0 0 0-5.15 1.42 6.3 6.3 0 0 1-3.45 2.52 6.29 6.29 0 0 0 6.93-2.52zm1.58-5.69a4.11 4.11 0 0 0 5.11-6.1 14.5 14.5 0 0 0-11.88-6.2 16.6 16.6 0 0 0-1.74.1m0 28.78a14.27 14.27 0 0 0 1.74.1 14.46 14.46 0 0 0 12-6.38 4.11 4.11 0 0 0-5.14-6"/></g></g></svg>