<svg xmlns="http://www.w3.org/2000/svg" viewBox="0 0 133.53 91.25"><defs><style>.cls-1{fill:none;stroke:#fff;stroke-miterlimit:10;stroke-width:.75px}.cls-2{font-size:5.44px;fill:#fff;font-family:MonospaceTypewriter,MonospaceTypewriter;letter-spacing:.08em}.cls-3{letter-spacing:.03em}.cls-4{letter-spacing:.04em}.cls-5{letter-spacing:-.07em}.cls-6{letter-spacing:.07em}.cls-7{letter-spacing:.04em}</style></defs><title>Asset 2</title><g id="Layer_2" data-name="Layer 2"><g id="PROJECT_PAGE" data-name="PROJECT PAGE"><rect class="cls-1" x=".38" y=".38" width="132.78" height="90.5" rx="13.12" ry="13.12"/><text class="cls-2" transform="translate(7.07 45.73)">2<tspan class="cls-3" x="3.6" y="0">0</tspan><tspan class="cls-4" x="6.94" y="0">1</tspan><tspan x="10.31" y="0">8/07-06</tspan><tspan x="0" y="6.52">BOAKYE-AGYEMAN, Ch</tspan><tspan class="cls-5" x="64.71" y="6.52">r</tspan><tspan class="cls-6" x="67.53" y="6.52">istian</tspan><tspan x="0" y="13.05">Portfolio</tspan><tspan x="0" y="19.57">VERS</tspan><tspan class="cls-7" x="14.4" y="19.57">I</tspan><tspan x="17.79" y="19.57">ON 002</tspan><tspan x="0" y="26.1">CA</tspan><tspan x="0" y="39.15">www.ccba.work</tspan></text><path class="cls-1" d="M30.19 16.73a6.25 6.25 0 0 0-6.88-2.43 6.27 6.27 0 0 1 3.4 2.43 4.11 4.11 0 0 0 5.11 1.37 4.09 4.09 0 0 1-1.63-1.37zM10.57 20.3A14.5 14.5 0 0 1 23.31 5.92a14.48 14.48 0 1 0 0 28.75A14.5 14.5 0 0 1 10.57 20.3zm19.67 3.49a4.09 4.09 0 0 1 1.67-1.43 4.11 4.11 0 0 0-5.15 1.43 6.26 6.26 0 0 1-3.45 2.51 6.25 6.25 0 0 0 6.93-2.51zm1.58-5.69a4.11 4.11 0 0 0 5.11-6.1 14.48 14.48 0 0 0-13.62-6.1m0 28.78a14.48 14.48 0 0 0 13.75-6.28 4.11 4.11 0 0 0-5.15-6m17.38-5.67a6.25 6.25 0 0 0-6.88-2.43 6.27 6.27 0 0 1 3.4 2.43 4.11 4.11 0 0 0 5.11 1.37 4.09 4.09 0 0 1-1.63-1.37z"/><path class="cls-1" d="M29.68 20.3A14.5 14.5 0 0 1 42.42 5.92a14.48 14.48 0 1 0 0 28.75A14.5 14.5 0 0 1 29.68 20.3z"/><path class="cls-1" d="M49.34 23.79A4.09 4.09 0 0 1 51 22.37a4.11 4.11 0 0 0-5.15 1.43 6.26 6.26 0 0 1-3.45 2.51 6.25 6.25 0 0 0 6.93-2.51zm1.59-5.69A4.11 4.11 0 0 0 56 12a14.48 14.48 0 0 0-13.62-6.1m.04 28.78a14.48 14.48 0 0 0 13.74-6.28 4.11 4.11 0 0 0-5.15-6m17.39-5.67a6.25 6.25 0 0 0-6.88-2.43 6.27 6.27 0 0 1 3.4 2.43A4.11 4.11 0 0 0 70 18.1a4.09 4.09 0 0 1-1.6-1.37z"/><path class="cls-1" d="M48.78 20.3A14.5 14.5 0 0 1 61.52 5.92a14.48 14.48 0 1 0 0 28.75A14.5 14.5 0 0 1 48.78 20.3zm19.67 3.49a4.09 4.09 0 0 1 1.67-1.43A4.11 4.11 0 0 0 65 23.79a6.26 6.26 0 0 1-3.45 2.51 6.25 6.25 0 0 0 6.93-2.51zM70 18.1a4.11 4.11 0 0 0 5.14-6.1 14.48 14.48 0 0 0-13.62-6.1m0 28.78a14.48 14.48 0 0 0 13.75-6.28 4.11 4.11 0 0 0-5.15-6m17.38-5.67a6.25 6.25 0 0 0-6.88-2.43A6.27 6.27 0 0 1 84 16.73a4.11 4.11 0 0 0 5.11 1.37 4.09 4.09 0 0 1-1.61-1.37z"/><path class="cls-1" d="M67.89 20.3A14.5 14.5 0 0 1 80.63 5.92a14.48 14.48 0 1 0 0 28.75A14.5 14.5 0 0 1 67.89 20.3zm19.67 3.49a4.09 4.09 0 0 1 1.67-1.43 4.11 4.11 0 0 0-5.15 1.43 6.26 6.26 0 0 1-3.45 2.51 6.25 6.25 0 0 0 6.93-2.51zm1.58-5.69a4.11 4.11 0 0 0 5.11-6.1 14.48 14.48 0 0 0-13.62-6.1m0 28.78a14.48 14.48 0 0 0 13.74-6.28 4.11 4.11 0 0 0-5.15-6"/></g></g></svg>